<?xml version="1.0" encoding="utf-8" standalone="no"?>
<!DOCTYPE svg PUBLIC "-//W3C//DTD SVG 1.1//EN"
  "http://www.w3.org/Graphics/SVG/1.1/DTD/svg11.dtd">
<!-- Created with matplotlib (https://matplotlib.org/) -->
<svg height="288pt" version="1.1" viewBox="0 0 432 288" width="432pt" xmlns="http://www.w3.org/2000/svg" xmlns:xlink="http://www.w3.org/1999/xlink">
 <defs>
  <style type="text/css">
*{stroke-linecap:butt;stroke-linejoin:round;white-space:pre;}
  </style>
 </defs>
 <g id="figure_1">
  <g id="patch_1">
   <path d="M 0 288 
L 432 288 
L 432 0 
L 0 0 
z
" style="fill:#ffffff;"/>
  </g>
  <g id="axes_1">
   <g id="patch_2">
    <path d="M 54 252 
L 388.8 252 
L 388.8 34.56 
L 54 34.56 
z
" style="fill:#ffffff;"/>
   </g>
   <g id="matplotlib.axis_1">
    <g id="xtick_1">
     <g id="line2d_1">
      <defs>
       <path d="M 0 0 
L 0 3.5 
" id="m79a25b3563" style="stroke:#000000;stroke-width:0.8;"/>
      </defs>
      <g>
       <use style="stroke:#000000;stroke-width:0.8;" x="54" xlink:href="#m79a25b3563" y="252"/>
      </g>
     </g>
     <g id="text_1">
      <!-- 0 -->
      <defs>
       <path d="M 31.78125 66.40625 
Q 24.171875 66.40625 20.328125 58.90625 
Q 16.5 51.421875 16.5 36.375 
Q 16.5 21.390625 20.328125 13.890625 
Q 24.171875 6.390625 31.78125 6.390625 
Q 39.453125 6.390625 43.28125 13.890625 
Q 47.125 21.390625 47.125 36.375 
Q 47.125 51.421875 43.28125 58.90625 
Q 39.453125 66.40625 31.78125 66.40625 
z
M 31.78125 74.21875 
Q 44.046875 74.21875 50.515625 64.515625 
Q 56.984375 54.828125 56.984375 36.375 
Q 56.984375 17.96875 50.515625 8.265625 
Q 44.046875 -1.421875 31.78125 -1.421875 
Q 19.53125 -1.421875 13.0625 8.265625 
Q 6.59375 17.96875 6.59375 36.375 
Q 6.59375 54.828125 13.0625 64.515625 
Q 19.53125 74.21875 31.78125 74.21875 
z
" id="DejaVuSans-48"/>
      </defs>
      <g transform="translate(50.81875 266.598437)scale(0.1 -0.1)">
       <use xlink:href="#DejaVuSans-48"/>
      </g>
     </g>
    </g>
    <g id="xtick_2">
     <g id="line2d_2">
      <g>
       <use style="stroke:#000000;stroke-width:0.8;" x="109.8" xlink:href="#m79a25b3563" y="252"/>
      </g>
     </g>
     <g id="text_2">
      <!-- 2 -->
      <defs>
       <path d="M 19.1875 8.296875 
L 53.609375 8.296875 
L 53.609375 0 
L 7.328125 0 
L 7.328125 8.296875 
Q 12.9375 14.109375 22.625 23.890625 
Q 32.328125 33.6875 34.8125 36.53125 
Q 39.546875 41.84375 41.421875 45.53125 
Q 43.3125 49.21875 43.3125 52.78125 
Q 43.3125 58.59375 39.234375 62.25 
Q 35.15625 65.921875 28.609375 65.921875 
Q 23.96875 65.921875 18.8125 64.3125 
Q 13.671875 62.703125 7.8125 59.421875 
L 7.8125 69.390625 
Q 13.765625 71.78125 18.9375 73 
Q 24.125 74.21875 28.421875 74.21875 
Q 39.75 74.21875 46.484375 68.546875 
Q 53.21875 62.890625 53.21875 53.421875 
Q 53.21875 48.921875 51.53125 44.890625 
Q 49.859375 40.875 45.40625 35.40625 
Q 44.1875 33.984375 37.640625 27.21875 
Q 31.109375 20.453125 19.1875 8.296875 
z
" id="DejaVuSans-50"/>
      </defs>
      <g transform="translate(106.61875 266.598437)scale(0.1 -0.1)">
       <use xlink:href="#DejaVuSans-50"/>
      </g>
     </g>
    </g>
    <g id="xtick_3">
     <g id="line2d_3">
      <g>
       <use style="stroke:#000000;stroke-width:0.8;" x="165.6" xlink:href="#m79a25b3563" y="252"/>
      </g>
     </g>
     <g id="text_3">
      <!-- 4 -->
      <defs>
       <path d="M 37.796875 64.3125 
L 12.890625 25.390625 
L 37.796875 25.390625 
z
M 35.203125 72.90625 
L 47.609375 72.90625 
L 47.609375 25.390625 
L 58.015625 25.390625 
L 58.015625 17.1875 
L 47.609375 17.1875 
L 47.609375 0 
L 37.796875 0 
L 37.796875 17.1875 
L 4.890625 17.1875 
L 4.890625 26.703125 
z
" id="DejaVuSans-52"/>
      </defs>
      <g transform="translate(162.41875 266.598437)scale(0.1 -0.1)">
       <use xlink:href="#DejaVuSans-52"/>
      </g>
     </g>
    </g>
    <g id="xtick_4">
     <g id="line2d_4">
      <g>
       <use style="stroke:#000000;stroke-width:0.8;" x="221.4" xlink:href="#m79a25b3563" y="252"/>
      </g>
     </g>
     <g id="text_4">
      <!-- 6 -->
      <defs>
       <path d="M 33.015625 40.375 
Q 26.375 40.375 22.484375 35.828125 
Q 18.609375 31.296875 18.609375 23.390625 
Q 18.609375 15.53125 22.484375 10.953125 
Q 26.375 6.390625 33.015625 6.390625 
Q 39.65625 6.390625 43.53125 10.953125 
Q 47.40625 15.53125 47.40625 23.390625 
Q 47.40625 31.296875 43.53125 35.828125 
Q 39.65625 40.375 33.015625 40.375 
z
M 52.59375 71.296875 
L 52.59375 62.3125 
Q 48.875 64.0625 45.09375 64.984375 
Q 41.3125 65.921875 37.59375 65.921875 
Q 27.828125 65.921875 22.671875 59.328125 
Q 17.53125 52.734375 16.796875 39.40625 
Q 19.671875 43.65625 24.015625 45.921875 
Q 28.375 48.1875 33.59375 48.1875 
Q 44.578125 48.1875 50.953125 41.515625 
Q 57.328125 34.859375 57.328125 23.390625 
Q 57.328125 12.15625 50.6875 5.359375 
Q 44.046875 -1.421875 33.015625 -1.421875 
Q 20.359375 -1.421875 13.671875 8.265625 
Q 6.984375 17.96875 6.984375 36.375 
Q 6.984375 53.65625 15.1875 63.9375 
Q 23.390625 74.21875 37.203125 74.21875 
Q 40.921875 74.21875 44.703125 73.484375 
Q 48.484375 72.75 52.59375 71.296875 
z
" id="DejaVuSans-54"/>
      </defs>
      <g transform="translate(218.21875 266.598437)scale(0.1 -0.1)">
       <use xlink:href="#DejaVuSans-54"/>
      </g>
     </g>
    </g>
    <g id="xtick_5">
     <g id="line2d_5">
      <g>
       <use style="stroke:#000000;stroke-width:0.8;" x="277.2" xlink:href="#m79a25b3563" y="252"/>
      </g>
     </g>
     <g id="text_5">
      <!-- 8 -->
      <defs>
       <path d="M 31.78125 34.625 
Q 24.75 34.625 20.71875 30.859375 
Q 16.703125 27.09375 16.703125 20.515625 
Q 16.703125 13.921875 20.71875 10.15625 
Q 24.75 6.390625 31.78125 6.390625 
Q 38.8125 6.390625 42.859375 10.171875 
Q 46.921875 13.96875 46.921875 20.515625 
Q 46.921875 27.09375 42.890625 30.859375 
Q 38.875 34.625 31.78125 34.625 
z
M 21.921875 38.8125 
Q 15.578125 40.375 12.03125 44.71875 
Q 8.5 49.078125 8.5 55.328125 
Q 8.5 64.0625 14.71875 69.140625 
Q 20.953125 74.21875 31.78125 74.21875 
Q 42.671875 74.21875 48.875 69.140625 
Q 55.078125 64.0625 55.078125 55.328125 
Q 55.078125 49.078125 51.53125 44.71875 
Q 48 40.375 41.703125 38.8125 
Q 48.828125 37.15625 52.796875 32.3125 
Q 56.78125 27.484375 56.78125 20.515625 
Q 56.78125 9.90625 50.3125 4.234375 
Q 43.84375 -1.421875 31.78125 -1.421875 
Q 19.734375 -1.421875 13.25 4.234375 
Q 6.78125 9.90625 6.78125 20.515625 
Q 6.78125 27.484375 10.78125 32.3125 
Q 14.796875 37.15625 21.921875 38.8125 
z
M 18.3125 54.390625 
Q 18.3125 48.734375 21.84375 45.5625 
Q 25.390625 42.390625 31.78125 42.390625 
Q 38.140625 42.390625 41.71875 45.5625 
Q 45.3125 48.734375 45.3125 54.390625 
Q 45.3125 60.0625 41.71875 63.234375 
Q 38.140625 66.40625 31.78125 66.40625 
Q 25.390625 66.40625 21.84375 63.234375 
Q 18.3125 60.0625 18.3125 54.390625 
z
" id="DejaVuSans-56"/>
      </defs>
      <g transform="translate(274.01875 266.598437)scale(0.1 -0.1)">
       <use xlink:href="#DejaVuSans-56"/>
      </g>
     </g>
    </g>
    <g id="xtick_6">
     <g id="line2d_6">
      <g>
       <use style="stroke:#000000;stroke-width:0.8;" x="333" xlink:href="#m79a25b3563" y="252"/>
      </g>
     </g>
     <g id="text_6">
      <!-- 10 -->
      <defs>
       <path d="M 12.40625 8.296875 
L 28.515625 8.296875 
L 28.515625 63.921875 
L 10.984375 60.40625 
L 10.984375 69.390625 
L 28.421875 72.90625 
L 38.28125 72.90625 
L 38.28125 8.296875 
L 54.390625 8.296875 
L 54.390625 0 
L 12.40625 0 
z
" id="DejaVuSans-49"/>
      </defs>
      <g transform="translate(326.6375 266.598437)scale(0.1 -0.1)">
       <use xlink:href="#DejaVuSans-49"/>
       <use x="63.623047" xlink:href="#DejaVuSans-48"/>
      </g>
     </g>
    </g>
    <g id="xtick_7">
     <g id="line2d_7">
      <g>
       <use style="stroke:#000000;stroke-width:0.8;" x="388.8" xlink:href="#m79a25b3563" y="252"/>
      </g>
     </g>
     <g id="text_7">
      <!-- 12 -->
      <g transform="translate(382.4375 266.598437)scale(0.1 -0.1)">
       <use xlink:href="#DejaVuSans-49"/>
       <use x="63.623047" xlink:href="#DejaVuSans-50"/>
      </g>
     </g>
    </g>
    <g id="text_8">
     <!-- Energy [KeV] -->
     <defs>
      <path d="M 9.8125 72.90625 
L 55.90625 72.90625 
L 55.90625 64.59375 
L 19.671875 64.59375 
L 19.671875 43.015625 
L 54.390625 43.015625 
L 54.390625 34.71875 
L 19.671875 34.71875 
L 19.671875 8.296875 
L 56.78125 8.296875 
L 56.78125 0 
L 9.8125 0 
z
" id="DejaVuSans-69"/>
      <path d="M 54.890625 33.015625 
L 54.890625 0 
L 45.90625 0 
L 45.90625 32.71875 
Q 45.90625 40.484375 42.875 44.328125 
Q 39.84375 48.1875 33.796875 48.1875 
Q 26.515625 48.1875 22.3125 43.546875 
Q 18.109375 38.921875 18.109375 30.90625 
L 18.109375 0 
L 9.078125 0 
L 9.078125 54.6875 
L 18.109375 54.6875 
L 18.109375 46.1875 
Q 21.34375 51.125 25.703125 53.5625 
Q 30.078125 56 35.796875 56 
Q 45.21875 56 50.046875 50.171875 
Q 54.890625 44.34375 54.890625 33.015625 
z
" id="DejaVuSans-110"/>
      <path d="M 56.203125 29.59375 
L 56.203125 25.203125 
L 14.890625 25.203125 
Q 15.484375 15.921875 20.484375 11.0625 
Q 25.484375 6.203125 34.421875 6.203125 
Q 39.59375 6.203125 44.453125 7.46875 
Q 49.3125 8.734375 54.109375 11.28125 
L 54.109375 2.78125 
Q 49.265625 0.734375 44.1875 -0.34375 
Q 39.109375 -1.421875 33.890625 -1.421875 
Q 20.796875 -1.421875 13.15625 6.1875 
Q 5.515625 13.8125 5.515625 26.8125 
Q 5.515625 40.234375 12.765625 48.109375 
Q 20.015625 56 32.328125 56 
Q 43.359375 56 49.78125 48.890625 
Q 56.203125 41.796875 56.203125 29.59375 
z
M 47.21875 32.234375 
Q 47.125 39.59375 43.09375 43.984375 
Q 39.0625 48.390625 32.421875 48.390625 
Q 24.90625 48.390625 20.390625 44.140625 
Q 15.875 39.890625 15.1875 32.171875 
z
" id="DejaVuSans-101"/>
      <path d="M 41.109375 46.296875 
Q 39.59375 47.171875 37.8125 47.578125 
Q 36.03125 48 33.890625 48 
Q 26.265625 48 22.1875 43.046875 
Q 18.109375 38.09375 18.109375 28.8125 
L 18.109375 0 
L 9.078125 0 
L 9.078125 54.6875 
L 18.109375 54.6875 
L 18.109375 46.1875 
Q 20.953125 51.171875 25.484375 53.578125 
Q 30.03125 56 36.53125 56 
Q 37.453125 56 38.578125 55.875 
Q 39.703125 55.765625 41.0625 55.515625 
z
" id="DejaVuSans-114"/>
      <path d="M 45.40625 27.984375 
Q 45.40625 37.75 41.375 43.109375 
Q 37.359375 48.484375 30.078125 48.484375 
Q 22.859375 48.484375 18.828125 43.109375 
Q 14.796875 37.75 14.796875 27.984375 
Q 14.796875 18.265625 18.828125 12.890625 
Q 22.859375 7.515625 30.078125 7.515625 
Q 37.359375 7.515625 41.375 12.890625 
Q 45.40625 18.265625 45.40625 27.984375 
z
M 54.390625 6.78125 
Q 54.390625 -7.171875 48.1875 -13.984375 
Q 42 -20.796875 29.203125 -20.796875 
Q 24.46875 -20.796875 20.265625 -20.09375 
Q 16.0625 -19.390625 12.109375 -17.921875 
L 12.109375 -9.1875 
Q 16.0625 -11.328125 19.921875 -12.34375 
Q 23.78125 -13.375 27.78125 -13.375 
Q 36.625 -13.375 41.015625 -8.765625 
Q 45.40625 -4.15625 45.40625 5.171875 
L 45.40625 9.625 
Q 42.625 4.78125 38.28125 2.390625 
Q 33.9375 0 27.875 0 
Q 17.828125 0 11.671875 7.65625 
Q 5.515625 15.328125 5.515625 27.984375 
Q 5.515625 40.671875 11.671875 48.328125 
Q 17.828125 56 27.875 56 
Q 33.9375 56 38.28125 53.609375 
Q 42.625 51.21875 45.40625 46.390625 
L 45.40625 54.6875 
L 54.390625 54.6875 
z
" id="DejaVuSans-103"/>
      <path d="M 32.171875 -5.078125 
Q 28.375 -14.84375 24.75 -17.8125 
Q 21.140625 -20.796875 15.09375 -20.796875 
L 7.90625 -20.796875 
L 7.90625 -13.28125 
L 13.1875 -13.28125 
Q 16.890625 -13.28125 18.9375 -11.515625 
Q 21 -9.765625 23.484375 -3.21875 
L 25.09375 0.875 
L 2.984375 54.6875 
L 12.5 54.6875 
L 29.59375 11.921875 
L 46.6875 54.6875 
L 56.203125 54.6875 
z
" id="DejaVuSans-121"/>
      <path id="DejaVuSans-32"/>
      <path d="M 8.59375 75.984375 
L 29.296875 75.984375 
L 29.296875 69 
L 17.578125 69 
L 17.578125 -6.203125 
L 29.296875 -6.203125 
L 29.296875 -13.1875 
L 8.59375 -13.1875 
z
" id="DejaVuSans-91"/>
      <path d="M 9.8125 72.90625 
L 19.671875 72.90625 
L 19.671875 42.09375 
L 52.390625 72.90625 
L 65.09375 72.90625 
L 28.90625 38.921875 
L 67.671875 0 
L 54.6875 0 
L 19.671875 35.109375 
L 19.671875 0 
L 9.8125 0 
z
" id="DejaVuSans-75"/>
      <path d="M 28.609375 0 
L 0.78125 72.90625 
L 11.078125 72.90625 
L 34.1875 11.53125 
L 57.328125 72.90625 
L 67.578125 72.90625 
L 39.796875 0 
z
" id="DejaVuSans-86"/>
      <path d="M 30.421875 75.984375 
L 30.421875 -13.1875 
L 9.71875 -13.1875 
L 9.71875 -6.203125 
L 21.390625 -6.203125 
L 21.390625 69 
L 9.71875 69 
L 9.71875 75.984375 
z
" id="DejaVuSans-93"/>
     </defs>
     <g transform="translate(188.544531 280.276563)scale(0.1 -0.1)">
      <use xlink:href="#DejaVuSans-69"/>
      <use x="63.183594" xlink:href="#DejaVuSans-110"/>
      <use x="126.5625" xlink:href="#DejaVuSans-101"/>
      <use x="188.085938" xlink:href="#DejaVuSans-114"/>
      <use x="229.183594" xlink:href="#DejaVuSans-103"/>
      <use x="292.660156" xlink:href="#DejaVuSans-121"/>
      <use x="351.839844" xlink:href="#DejaVuSans-32"/>
      <use x="383.626953" xlink:href="#DejaVuSans-91"/>
      <use x="422.640625" xlink:href="#DejaVuSans-75"/>
      <use x="488.138672" xlink:href="#DejaVuSans-101"/>
      <use x="549.662109" xlink:href="#DejaVuSans-86"/>
      <use x="618.070312" xlink:href="#DejaVuSans-93"/>
     </g>
    </g>
   </g>
   <g id="matplotlib.axis_2">
    <g id="ytick_1">
     <g id="line2d_8">
      <defs>
       <path d="M 0 0 
L -3.5 0 
" id="m200aaee3bb" style="stroke:#000000;stroke-width:0.8;"/>
      </defs>
      <g>
       <use style="stroke:#000000;stroke-width:0.8;" x="54" xlink:href="#m200aaee3bb" y="252"/>
      </g>
     </g>
     <g id="text_9">
      <!-- 0 -->
      <g transform="translate(40.6375 255.799219)scale(0.1 -0.1)">
       <use xlink:href="#DejaVuSans-48"/>
      </g>
     </g>
    </g>
    <g id="ytick_2">
     <g id="line2d_9">
      <g>
       <use style="stroke:#000000;stroke-width:0.8;" x="54" xlink:href="#m200aaee3bb" y="227.84"/>
      </g>
     </g>
     <g id="text_10">
      <!-- 50000 -->
      <defs>
       <path d="M 10.796875 72.90625 
L 49.515625 72.90625 
L 49.515625 64.59375 
L 19.828125 64.59375 
L 19.828125 46.734375 
Q 21.96875 47.46875 24.109375 47.828125 
Q 26.265625 48.1875 28.421875 48.1875 
Q 40.625 48.1875 47.75 41.5 
Q 54.890625 34.8125 54.890625 23.390625 
Q 54.890625 11.625 47.5625 5.09375 
Q 40.234375 -1.421875 26.90625 -1.421875 
Q 22.3125 -1.421875 17.546875 -0.640625 
Q 12.796875 0.140625 7.71875 1.703125 
L 7.71875 11.625 
Q 12.109375 9.234375 16.796875 8.0625 
Q 21.484375 6.890625 26.703125 6.890625 
Q 35.15625 6.890625 40.078125 11.328125 
Q 45.015625 15.765625 45.015625 23.390625 
Q 45.015625 31 40.078125 35.4375 
Q 35.15625 39.890625 26.703125 39.890625 
Q 22.75 39.890625 18.8125 39.015625 
Q 14.890625 38.140625 10.796875 36.28125 
z
" id="DejaVuSans-53"/>
      </defs>
      <g transform="translate(15.1875 231.639219)scale(0.1 -0.1)">
       <use xlink:href="#DejaVuSans-53"/>
       <use x="63.623047" xlink:href="#DejaVuSans-48"/>
       <use x="127.246094" xlink:href="#DejaVuSans-48"/>
       <use x="190.869141" xlink:href="#DejaVuSans-48"/>
       <use x="254.492188" xlink:href="#DejaVuSans-48"/>
      </g>
     </g>
    </g>
    <g id="ytick_3">
     <g id="line2d_10">
      <g>
       <use style="stroke:#000000;stroke-width:0.8;" x="54" xlink:href="#m200aaee3bb" y="203.68"/>
      </g>
     </g>
     <g id="text_11">
      <!-- 100000 -->
      <g transform="translate(8.825 207.479219)scale(0.1 -0.1)">
       <use xlink:href="#DejaVuSans-49"/>
       <use x="63.623047" xlink:href="#DejaVuSans-48"/>
       <use x="127.246094" xlink:href="#DejaVuSans-48"/>
       <use x="190.869141" xlink:href="#DejaVuSans-48"/>
       <use x="254.492188" xlink:href="#DejaVuSans-48"/>
       <use x="318.115234" xlink:href="#DejaVuSans-48"/>
      </g>
     </g>
    </g>
    <g id="ytick_4">
     <g id="line2d_11">
      <g>
       <use style="stroke:#000000;stroke-width:0.8;" x="54" xlink:href="#m200aaee3bb" y="179.52"/>
      </g>
     </g>
     <g id="text_12">
      <!-- 150000 -->
      <g transform="translate(8.825 183.319219)scale(0.1 -0.1)">
       <use xlink:href="#DejaVuSans-49"/>
       <use x="63.623047" xlink:href="#DejaVuSans-53"/>
       <use x="127.246094" xlink:href="#DejaVuSans-48"/>
       <use x="190.869141" xlink:href="#DejaVuSans-48"/>
       <use x="254.492188" xlink:href="#DejaVuSans-48"/>
       <use x="318.115234" xlink:href="#DejaVuSans-48"/>
      </g>
     </g>
    </g>
    <g id="ytick_5">
     <g id="line2d_12">
      <g>
       <use style="stroke:#000000;stroke-width:0.8;" x="54" xlink:href="#m200aaee3bb" y="155.36"/>
      </g>
     </g>
     <g id="text_13">
      <!-- 200000 -->
      <g transform="translate(8.825 159.159219)scale(0.1 -0.1)">
       <use xlink:href="#DejaVuSans-50"/>
       <use x="63.623047" xlink:href="#DejaVuSans-48"/>
       <use x="127.246094" xlink:href="#DejaVuSans-48"/>
       <use x="190.869141" xlink:href="#DejaVuSans-48"/>
       <use x="254.492188" xlink:href="#DejaVuSans-48"/>
       <use x="318.115234" xlink:href="#DejaVuSans-48"/>
      </g>
     </g>
    </g>
    <g id="ytick_6">
     <g id="line2d_13">
      <g>
       <use style="stroke:#000000;stroke-width:0.8;" x="54" xlink:href="#m200aaee3bb" y="131.2"/>
      </g>
     </g>
     <g id="text_14">
      <!-- 250000 -->
      <g transform="translate(8.825 134.999219)scale(0.1 -0.1)">
       <use xlink:href="#DejaVuSans-50"/>
       <use x="63.623047" xlink:href="#DejaVuSans-53"/>
       <use x="127.246094" xlink:href="#DejaVuSans-48"/>
       <use x="190.869141" xlink:href="#DejaVuSans-48"/>
       <use x="254.492188" xlink:href="#DejaVuSans-48"/>
       <use x="318.115234" xlink:href="#DejaVuSans-48"/>
      </g>
     </g>
    </g>
    <g id="ytick_7">
     <g id="line2d_14">
      <g>
       <use style="stroke:#000000;stroke-width:0.8;" x="54" xlink:href="#m200aaee3bb" y="107.04"/>
      </g>
     </g>
     <g id="text_15">
      <!-- 300000 -->
      <defs>
       <path d="M 40.578125 39.3125 
Q 47.65625 37.796875 51.625 33 
Q 55.609375 28.21875 55.609375 21.1875 
Q 55.609375 10.40625 48.1875 4.484375 
Q 40.765625 -1.421875 27.09375 -1.421875 
Q 22.515625 -1.421875 17.65625 -0.515625 
Q 12.796875 0.390625 7.625 2.203125 
L 7.625 11.71875 
Q 11.71875 9.328125 16.59375 8.109375 
Q 21.484375 6.890625 26.8125 6.890625 
Q 36.078125 6.890625 40.9375 10.546875 
Q 45.796875 14.203125 45.796875 21.1875 
Q 45.796875 27.640625 41.28125 31.265625 
Q 36.765625 34.90625 28.71875 34.90625 
L 20.21875 34.90625 
L 20.21875 43.015625 
L 29.109375 43.015625 
Q 36.375 43.015625 40.234375 45.921875 
Q 44.09375 48.828125 44.09375 54.296875 
Q 44.09375 59.90625 40.109375 62.90625 
Q 36.140625 65.921875 28.71875 65.921875 
Q 24.65625 65.921875 20.015625 65.03125 
Q 15.375 64.15625 9.8125 62.3125 
L 9.8125 71.09375 
Q 15.4375 72.65625 20.34375 73.4375 
Q 25.25 74.21875 29.59375 74.21875 
Q 40.828125 74.21875 47.359375 69.109375 
Q 53.90625 64.015625 53.90625 55.328125 
Q 53.90625 49.265625 50.4375 45.09375 
Q 46.96875 40.921875 40.578125 39.3125 
z
" id="DejaVuSans-51"/>
      </defs>
      <g transform="translate(8.825 110.839219)scale(0.1 -0.1)">
       <use xlink:href="#DejaVuSans-51"/>
       <use x="63.623047" xlink:href="#DejaVuSans-48"/>
       <use x="127.246094" xlink:href="#DejaVuSans-48"/>
       <use x="190.869141" xlink:href="#DejaVuSans-48"/>
       <use x="254.492188" xlink:href="#DejaVuSans-48"/>
       <use x="318.115234" xlink:href="#DejaVuSans-48"/>
      </g>
     </g>
    </g>
    <g id="ytick_8">
     <g id="line2d_15">
      <g>
       <use style="stroke:#000000;stroke-width:0.8;" x="54" xlink:href="#m200aaee3bb" y="82.88"/>
      </g>
     </g>
     <g id="text_16">
      <!-- 350000 -->
      <g transform="translate(8.825 86.679219)scale(0.1 -0.1)">
       <use xlink:href="#DejaVuSans-51"/>
       <use x="63.623047" xlink:href="#DejaVuSans-53"/>
       <use x="127.246094" xlink:href="#DejaVuSans-48"/>
       <use x="190.869141" xlink:href="#DejaVuSans-48"/>
       <use x="254.492188" xlink:href="#DejaVuSans-48"/>
       <use x="318.115234" xlink:href="#DejaVuSans-48"/>
      </g>
     </g>
    </g>
    <g id="ytick_9">
     <g id="line2d_16">
      <g>
       <use style="stroke:#000000;stroke-width:0.8;" x="54" xlink:href="#m200aaee3bb" y="58.72"/>
      </g>
     </g>
     <g id="text_17">
      <!-- 400000 -->
      <g transform="translate(8.825 62.519219)scale(0.1 -0.1)">
       <use xlink:href="#DejaVuSans-52"/>
       <use x="63.623047" xlink:href="#DejaVuSans-48"/>
       <use x="127.246094" xlink:href="#DejaVuSans-48"/>
       <use x="190.869141" xlink:href="#DejaVuSans-48"/>
       <use x="254.492188" xlink:href="#DejaVuSans-48"/>
       <use x="318.115234" xlink:href="#DejaVuSans-48"/>
      </g>
     </g>
    </g>
    <g id="ytick_10">
     <g id="line2d_17">
      <g>
       <use style="stroke:#000000;stroke-width:0.8;" x="54" xlink:href="#m200aaee3bb" y="34.56"/>
      </g>
     </g>
     <g id="text_18">
      <!-- 450000 -->
      <g transform="translate(8.825 38.359219)scale(0.1 -0.1)">
       <use xlink:href="#DejaVuSans-52"/>
       <use x="63.623047" xlink:href="#DejaVuSans-53"/>
       <use x="127.246094" xlink:href="#DejaVuSans-48"/>
       <use x="190.869141" xlink:href="#DejaVuSans-48"/>
       <use x="254.492188" xlink:href="#DejaVuSans-48"/>
       <use x="318.115234" xlink:href="#DejaVuSans-48"/>
      </g>
     </g>
    </g>
    <g id="text_19">
     <!-- Counts -->
     <defs>
      <path d="M 64.40625 67.28125 
L 64.40625 56.890625 
Q 59.421875 61.53125 53.78125 63.8125 
Q 48.140625 66.109375 41.796875 66.109375 
Q 29.296875 66.109375 22.65625 58.46875 
Q 16.015625 50.828125 16.015625 36.375 
Q 16.015625 21.96875 22.65625 14.328125 
Q 29.296875 6.6875 41.796875 6.6875 
Q 48.140625 6.6875 53.78125 8.984375 
Q 59.421875 11.28125 64.40625 15.921875 
L 64.40625 5.609375 
Q 59.234375 2.09375 53.4375 0.328125 
Q 47.65625 -1.421875 41.21875 -1.421875 
Q 24.65625 -1.421875 15.125 8.703125 
Q 5.609375 18.84375 5.609375 36.375 
Q 5.609375 53.953125 15.125 64.078125 
Q 24.65625 74.21875 41.21875 74.21875 
Q 47.75 74.21875 53.53125 72.484375 
Q 59.328125 70.75 64.40625 67.28125 
z
" id="DejaVuSans-67"/>
      <path d="M 30.609375 48.390625 
Q 23.390625 48.390625 19.1875 42.75 
Q 14.984375 37.109375 14.984375 27.296875 
Q 14.984375 17.484375 19.15625 11.84375 
Q 23.34375 6.203125 30.609375 6.203125 
Q 37.796875 6.203125 41.984375 11.859375 
Q 46.1875 17.53125 46.1875 27.296875 
Q 46.1875 37.015625 41.984375 42.703125 
Q 37.796875 48.390625 30.609375 48.390625 
z
M 30.609375 56 
Q 42.328125 56 49.015625 48.375 
Q 55.71875 40.765625 55.71875 27.296875 
Q 55.71875 13.875 49.015625 6.21875 
Q 42.328125 -1.421875 30.609375 -1.421875 
Q 18.84375 -1.421875 12.171875 6.21875 
Q 5.515625 13.875 5.515625 27.296875 
Q 5.515625 40.765625 12.171875 48.375 
Q 18.84375 56 30.609375 56 
z
" id="DejaVuSans-111"/>
      <path d="M 8.5 21.578125 
L 8.5 54.6875 
L 17.484375 54.6875 
L 17.484375 21.921875 
Q 17.484375 14.15625 20.5 10.265625 
Q 23.53125 6.390625 29.59375 6.390625 
Q 36.859375 6.390625 41.078125 11.03125 
Q 45.3125 15.671875 45.3125 23.6875 
L 45.3125 54.6875 
L 54.296875 54.6875 
L 54.296875 0 
L 45.3125 0 
L 45.3125 8.40625 
Q 42.046875 3.421875 37.71875 1 
Q 33.40625 -1.421875 27.6875 -1.421875 
Q 18.265625 -1.421875 13.375 4.4375 
Q 8.5 10.296875 8.5 21.578125 
z
M 31.109375 56 
z
" id="DejaVuSans-117"/>
      <path d="M 18.3125 70.21875 
L 18.3125 54.6875 
L 36.8125 54.6875 
L 36.8125 47.703125 
L 18.3125 47.703125 
L 18.3125 18.015625 
Q 18.3125 11.328125 20.140625 9.421875 
Q 21.96875 7.515625 27.59375 7.515625 
L 36.8125 7.515625 
L 36.8125 0 
L 27.59375 0 
Q 17.1875 0 13.234375 3.875 
Q 9.28125 7.765625 9.28125 18.015625 
L 9.28125 47.703125 
L 2.6875 47.703125 
L 2.6875 54.6875 
L 9.28125 54.6875 
L 9.28125 70.21875 
z
" id="DejaVuSans-116"/>
      <path d="M 44.28125 53.078125 
L 44.28125 44.578125 
Q 40.484375 46.53125 36.375 47.5 
Q 32.28125 48.484375 27.875 48.484375 
Q 21.1875 48.484375 17.84375 46.4375 
Q 14.5 44.390625 14.5 40.28125 
Q 14.5 37.15625 16.890625 35.375 
Q 19.28125 33.59375 26.515625 31.984375 
L 29.59375 31.296875 
Q 39.15625 29.25 43.1875 25.515625 
Q 47.21875 21.78125 47.21875 15.09375 
Q 47.21875 7.46875 41.1875 3.015625 
Q 35.15625 -1.421875 24.609375 -1.421875 
Q 20.21875 -1.421875 15.453125 -0.5625 
Q 10.6875 0.296875 5.421875 2 
L 5.421875 11.28125 
Q 10.40625 8.6875 15.234375 7.390625 
Q 20.0625 6.109375 24.8125 6.109375 
Q 31.15625 6.109375 34.5625 8.28125 
Q 37.984375 10.453125 37.984375 14.40625 
Q 37.984375 18.0625 35.515625 20.015625 
Q 33.0625 21.96875 24.703125 23.78125 
L 21.578125 24.515625 
Q 13.234375 26.265625 9.515625 29.90625 
Q 5.8125 33.546875 5.8125 39.890625 
Q 5.8125 47.609375 11.28125 51.796875 
Q 16.75 56 26.8125 56 
Q 31.78125 56 36.171875 55.265625 
Q 40.578125 54.546875 44.28125 53.078125 
z
" id="DejaVuSans-115"/>
     </defs>
     <g transform="translate(2.745312 160.733125)rotate(-90)scale(0.1 -0.1)">
      <use xlink:href="#DejaVuSans-67"/>
      <use x="69.824219" xlink:href="#DejaVuSans-111"/>
      <use x="131.005859" xlink:href="#DejaVuSans-117"/>
      <use x="194.384766" xlink:href="#DejaVuSans-110"/>
      <use x="257.763672" xlink:href="#DejaVuSans-116"/>
      <use x="296.972656" xlink:href="#DejaVuSans-115"/>
     </g>
    </g>
   </g>
   <g id="line2d_18">
    <path clip-path="url(#p5c51303567)" d="M 54 252 
L 56.232 251.973424 
L 56.511 251.861322 
L 56.79 251.52888 
L 57.069 250.690045 
L 58.185 245.187846 
L 58.743 243.919446 
L 59.022 243.857597 
L 59.301 243.526122 
L 59.58 243.384061 
L 60.138 242.86752 
L 60.975 240.547194 
L 61.254 239.806448 
L 61.533 239.397178 
L 61.812 240.092986 
L 62.649 243.683162 
L 62.928 244.291027 
L 63.486 244.662608 
L 64.044 244.915805 
L 64.323 245.032739 
L 64.602 244.997949 
L 65.16 244.168778 
L 65.718 241.774522 
L 66.276 238.419181 
L 66.555 237.635914 
L 66.834 237.81808 
L 67.113 238.745341 
L 67.95 242.44472 
L 68.508 243.329942 
L 69.066 243.833437 
L 69.345 244.162013 
L 69.903 244.449034 
L 70.182 244.671306 
L 70.74 245.447808 
L 71.298 245.705837 
L 71.577 245.594701 
L 72.135 244.31567 
L 72.693 242.555373 
L 72.972 242.177994 
L 73.251 242.141754 
L 73.809 243.387443 
L 74.367 244.570317 
L 74.646 244.591094 
L 75.204 243.728582 
L 75.483 242.95208 
L 75.762 242.743821 
L 76.041 242.767498 
L 76.32 242.96561 
L 76.878 243.99096 
L 77.715 244.840909 
L 77.994 244.897443 
L 78.831 245.542032 
L 79.11 245.710186 
L 80.505 245.578755 
L 81.063 245.277722 
L 81.621 245.104736 
L 82.179 245.129862 
L 82.458 245.270957 
L 83.016 245.182048 
L 83.853 245.323142 
L 84.132 245.263709 
L 84.411 245.078643 
L 84.69 245.042886 
L 84.969 244.881981 
L 85.248 244.929818 
L 85.527 244.805152 
L 85.806 244.879082 
L 88.317 243.728582 
L 88.596 243.914614 
L 88.875 243.945056 
L 89.154 243.724717 
L 89.712 243.672048 
L 89.991 243.600051 
L 90.549 242.933235 
L 90.828 242.279949 
L 91.107 241.275859 
L 92.502 233.890147 
L 92.781 233.668842 
L 93.06 233.998384 
L 93.618 236.08919 
L 94.455 239.704976 
L 95.013 240.926506 
L 95.292 241.415021 
L 96.129 241.901603 
L 96.408 241.904986 
L 96.966 242.198288 
L 97.245 242.14127 
L 97.524 242.238394 
L 97.803 242.053811 
L 98.64 242.110346 
L 98.919 241.918998 
L 99.198 241.921414 
L 99.756 241.568195 
L 100.035 241.640192 
L 100.314 241.455126 
L 100.593 241.474938 
L 101.43 240.587782 
L 102.267 239.696278 
L 102.825 239.463859 
L 103.104 239.644093 
L 103.383 239.551802 
L 103.941 239.709808 
L 104.22 239.527158 
L 105.057 238.176131 
L 105.615 236.438544 
L 106.452 233.67609 
L 106.731 233.152784 
L 107.01 233.398733 
L 107.568 234.757974 
L 108.405 238.035037 
L 108.684 238.679142 
L 109.242 239.064253 
L 109.521 239.146397 
L 110.079 238.720698 
L 111.474 239.215011 
L 111.753 239.528608 
L 112.032 239.600605 
L 112.311 239.888109 
L 113.985 239.56968 
L 114.264 239.089379 
L 114.543 238.972928 
L 114.822 238.683974 
L 115.938 236.914496 
L 116.775 236.233667 
L 117.054 236.260243 
L 117.612 236.065514 
L 117.891 235.685235 
L 118.17 235.070605 
L 118.449 233.852458 
L 118.728 231.003994 
L 119.007 226.774544 
L 119.286 219.731421 
L 119.565 208.710595 
L 120.123 172.390867 
L 121.239 69.722947 
L 121.518 55.498506 
L 121.797 52.282326 
L 122.076 58.971264 
L 122.634 89.512403 
L 123.192 114.868806 
L 123.471 119.575658 
L 123.75 118.967792 
L 124.308 114.465818 
L 124.587 116.328554 
L 124.866 124.265597 
L 125.424 153.723402 
L 126.261 204.805856 
L 126.819 225.694592 
L 127.377 235.637882 
L 127.656 237.902157 
L 127.935 238.931856 
L 128.214 239.318899 
L 128.493 239.224192 
L 128.772 238.746307 
L 129.888 235.490022 
L 130.167 235.119408 
L 130.446 235.053693 
L 131.004 236.181482 
L 132.399 241.387478 
L 132.957 242.49159 
L 134.073 243.284038 
L 134.631 243.357968 
L 134.91 243.226054 
L 135.189 243.285005 
L 135.468 243.098006 
L 135.747 243.211558 
L 137.142 242.802288 
L 137.421 242.75735 
L 137.979 242.501738 
L 138.258 242.551024 
L 138.816 242.338899 
L 139.374 242.516234 
L 139.653 242.474195 
L 139.932 242.23936 
L 140.211 242.375622 
L 141.048 241.732966 
L 141.327 241.317898 
L 141.885 240.887366 
L 142.164 240.624989 
L 142.443 240.647699 
L 142.722 240.393536 
L 143.28 240.3428 
L 143.559 240.536563 
L 143.838 240.526899 
L 144.117 240.681523 
L 144.675 240.673309 
L 144.954 240.552992 
L 145.233 240.608077 
L 146.628 239.040576 
L 146.907 238.895133 
L 147.465 238.963747 
L 148.023 239.816595 
L 148.581 240.84871 
L 149.418 242.103581 
L 149.976 242.374173 
L 150.813 242.659261 
L 152.208 242.304592 
L 153.045 241.88759 
L 153.324 241.540653 
L 153.603 241.430483 
L 154.161 240.800874 
L 154.44 240.466982 
L 154.719 240.34135 
L 155.556 238.54143 
L 155.835 237.271581 
L 156.114 234.954154 
L 156.393 231.426794 
L 156.951 218.670797 
L 157.509 196.158509 
L 158.625 140.82631 
L 158.904 132.386739 
L 159.183 128.693642 
L 159.462 131.013968 
L 159.741 138.068688 
L 160.299 163.488874 
L 161.136 206.32407 
L 161.694 224.953846 
L 162.252 234.712554 
L 162.531 237.124688 
L 162.81 238.238947 
L 163.089 238.436576 
L 163.368 237.863984 
L 163.647 236.578189 
L 164.205 230.541088 
L 164.763 220.106867 
L 166.158 187.345424 
L 166.437 183.605939 
L 166.716 182.881139 
L 166.995 184.078509 
L 167.274 186.969494 
L 168.111 202.358448 
L 168.948 216.873776 
L 169.785 227.045619 
L 170.622 233.635984 
L 170.901 235.069155 
L 171.18 235.775594 
L 171.459 236.094022 
L 171.738 235.829229 
L 172.017 235.289978 
L 172.575 232.154976 
L 173.412 226.167162 
L 173.691 224.956746 
L 173.97 224.28703 
L 174.249 223.997594 
L 174.807 226.296659 
L 176.481 238.814438 
L 177.039 241.144429 
L 177.597 242.102131 
L 178.155 242.559722 
L 178.713 242.357744 
L 179.55 240.878669 
L 180.108 239.306336 
L 180.945 236.831386 
L 181.782 236.102237 
L 182.061 236.440477 
L 184.293 242.496906 
L 184.851 243.199962 
L 185.13 243.144394 
L 185.409 243.226538 
L 186.525 242.383354 
L 186.804 241.870678 
L 187.083 241.597187 
L 187.362 240.904762 
L 187.92 240.45297 
L 188.478 240.098301 
L 188.757 240.035485 
L 189.315 240.469398 
L 190.71 242.307008 
L 191.547 243.054518 
L 191.826 242.996534 
L 192.384 243.325594 
L 192.663 243.331875 
L 192.942 243.574442 
L 193.5 243.467654 
L 194.337 243.826189 
L 194.616 243.69041 
L 194.895 243.765306 
L 195.453 243.668666 
L 195.732 243.6044 
L 196.011 243.755158 
L 196.29 243.670598 
L 196.569 243.838269 
L 197.127 243.6044 
L 197.406 243.767238 
L 200.475 243.502928 
L 200.754 243.72665 
L 201.312 243.656102 
L 209.124 243.355069 
L 209.403 243.558979 
L 209.961 243.369082 
L 210.519 243.332842 
L 210.798 243.462822 
L 211.077 243.333325 
L 212.193 243.307232 
L 212.472 243.229437 
L 213.03 243.420301 
L 213.309 243.282589 
L 213.588 243.493264 
L 214.425 243.306749 
L 214.704 243.385027 
L 215.82 243.223638 
L 216.099 243.315446 
L 216.936 243.259395 
L 217.215 243.331392 
L 217.494 243.269542 
L 217.773 243.334774 
L 218.331 243.1816 
L 218.61 243.36425 
L 224.469 243.289837 
L 225.027 243.274858 
L 225.306 243.25408 
L 225.585 243.07288 
L 225.864 243.240067 
L 226.422 243.176768 
L 226.98 243.184499 
L 227.259 243.127482 
L 227.817 243.22992 
L 228.096 243.113952 
L 228.654 243.101872 
L 228.933 242.942899 
L 229.491 242.997501 
L 230.607 242.40993 
L 231.165 242.015155 
L 231.444 241.703008 
L 232.002 241.539686 
L 232.56 241.499098 
L 232.839 241.471072 
L 233.676 241.838304 
L 234.513 242.626886 
L 234.792 242.500288 
L 235.35 242.901344 
L 235.629 242.89168 
L 236.466 243.276307 
L 236.745 243.176285 
L 237.024 243.345405 
L 237.582 243.21639 
L 238.14 243.31448 
L 238.419 243.211558 
L 238.977 243.301434 
L 239.256 243.276307 
L 239.535 243.386477 
L 239.814 243.176285 
L 240.093 243.347821 
L 240.372 243.138112 
L 240.93 243.336224 
L 241.209 243.258912 
L 242.046 243.392275 
L 242.325 243.27679 
L 242.604 243.375846 
L 242.883 243.274858 
L 243.162 243.422234 
L 243.441 243.260845 
L 243.72 243.38551 
L 243.999 243.261811 
L 244.557 243.288387 
L 245.394 243.18015 
L 245.952 243.108154 
L 246.231 243.203344 
L 246.51 243.075779 
L 246.789 243.119267 
L 247.068 243.319795 
L 247.347 243.144877 
L 249.021 243.150192 
L 249.858 243.072397 
L 250.137 243.237168 
L 250.974 243.200928 
L 251.532 243.355552 
L 252.09 243.184016 
L 252.369 243.322694 
L 252.648 243.166138 
L 252.927 243.349754 
L 253.485 243.292736 
L 253.764 243.537235 
L 254.043 243.312064 
L 254.601 243.453158 
L 255.438 243.457507 
L 255.717 243.573958 
L 256.275 243.574925 
L 256.554 243.35072 
L 257.949 243.453158 
L 258.507 243.570576 
L 258.786 243.398074 
L 259.344 243.3628 
L 259.623 243.246832 
L 259.902 243.30385 
L 260.181 243.083027 
L 260.46 243.127965 
L 261.018 242.740438 
L 261.576 242.705165 
L 261.855 242.416694 
L 262.134 242.567936 
L 262.413 242.43409 
L 262.692 242.432157 
L 262.971 242.750102 
L 263.25 242.685837 
L 265.203 243.28887 
L 265.482 243.326077 
L 265.761 243.481184 
L 266.598 243.502928 
L 266.877 243.600534 
L 267.156 243.524189 
L 267.435 243.718918 
L 267.993 243.596186 
L 268.551 243.704906 
L 269.109 243.695725 
L 270.504 243.629526 
L 271.341 243.544966 
L 271.62 243.679779 
L 272.457 243.69041 
L 273.573 243.756608 
L 274.131 243.739696 
L 274.41 243.864362 
L 274.968 243.66625 
L 275.247 243.86871 
L 275.526 243.70104 
L 276.642 243.760474 
L 276.921 243.894803 
L 278.037 243.843584 
L 278.595 243.909782 
L 278.874 243.776419 
L 280.548 243.931043 
L 281.385 243.807827 
L 281.943 243.861462 
L 282.222 243.776419 
L 282.78 243.85808 
L 283.059 243.807827 
L 283.338 243.9064 
L 284.454 243.753709 
L 284.733 243.857114 
L 285.012 243.812176 
L 285.291 243.914131 
L 286.407 243.769654 
L 286.686 243.932493 
L 288.639 243.997242 
L 289.197 244.036864 
L 289.476 244.111277 
L 289.755 244.008355 
L 290.871 244.129155 
L 291.429 244.07697 
L 291.708 244.164912 
L 291.987 244.073587 
L 292.266 244.259619 
L 292.545 243.979846 
L 293.94 244.171194 
L 294.219 244.027683 
L 294.777 244.166362 
L 295.335 244.21903 
L 297.567 244.150899 
L 298.404 244.280397 
L 298.683 244.221446 
L 298.962 244.332099 
L 299.799 244.228211 
L 300.078 244.316154 
L 300.357 244.187622 
L 302.31 244.289094 
L 302.868 244.198736 
L 303.147 244.371722 
L 303.426 244.150899 
L 303.705 244.32775 
L 304.542 244.290061 
L 304.821 244.386218 
L 305.1 244.255754 
L 306.495 244.366406 
L 307.053 244.393466 
L 307.89 244.286678 
L 308.169 244.58143 
L 308.727 244.304074 
L 309.285 244.382835 
L 309.564 244.418109 
L 309.843 244.299725 
L 310.122 244.514266 
L 310.401 244.361091 
L 312.075 244.349011 
L 312.354 244.134954 
L 312.633 244.223862 
L 313.47 243.845034 
L 313.749 243.64064 
L 314.028 243.59377 
L 314.307 243.41257 
L 314.586 243.098006 
L 315.423 242.641382 
L 315.981 242.202637 
L 316.26 242.327302 
L 316.539 242.02192 
L 316.818 242.134989 
L 317.097 241.936394 
L 318.213 242.725942 
L 318.771 243.164688 
L 319.05 243.429482 
L 319.608 243.637258 
L 319.887 243.985645 
L 320.166 244.085667 
L 320.445 244.329683 
L 321.003 244.421974 
L 321.282 244.567901 
L 322.119 244.539875 
L 322.398 244.723008 
L 322.677 244.615738 
L 324.351 244.743302 
L 324.63 244.652944 
L 325.188 244.727357 
L 325.746 244.790173 
L 326.862 244.803702 
L 327.699 244.82593 
L 327.978 244.938515 
L 328.536 244.881498 
L 329.373 244.861203 
L 330.768 244.925952 
L 331.047 244.828829 
L 331.326 245.054483 
L 332.163 244.900826 
L 332.442 244.987318 
L 333.279 244.988768 
L 333.837 244.962192 
L 334.116 244.95881 
L 334.395 245.102803 
L 334.674 244.961226 
L 335.232 245.061731 
L 335.511 244.950595 
L 335.79 244.960742 
L 336.069 245.187363 
L 336.627 244.98297 
L 338.58 245.137594 
L 339.138 245.122614 
L 340.812 245.063664 
L 341.091 244.986835 
L 341.928 245.156438 
L 343.602 245.183498 
L 344.16 245.129862 
L 344.439 245.286902 
L 345.555 245.219254 
L 346.392 245.26081 
L 347.508 245.129379 
L 347.787 245.090723 
L 348.066 244.93175 
L 348.345 245.007613 
L 349.182 244.488656 
L 349.461 244.022368 
L 349.74 243.852765 
L 350.577 242.317638 
L 350.856 241.680781 
L 351.693 238.286784 
L 352.251 235.073987 
L 353.088 228.051642 
L 354.204 215.803005 
L 355.041 206.638634 
L 355.599 202.550278 
L 355.878 201.681968 
L 356.157 201.489654 
L 356.715 203.075517 
L 357.273 207.571693 
L 357.831 214.043674 
L 358.947 228.095613 
L 359.784 236.242365 
L 360.621 241.031843 
L 361.179 242.852058 
L 361.737 243.929594 
L 362.016 244.124806 
L 362.574 244.160563 
L 363.132 243.947955 
L 363.69 243.431414 
L 364.248 242.58823 
L 364.527 242.304109 
L 364.806 241.736832 
L 365.364 241.234304 
L 366.201 240.424461 
L 366.48 240.340867 
L 366.759 240.535597 
L 367.038 240.531731 
L 367.875 241.473005 
L 368.991 243.387443 
L 370.665 245.255494 
L 371.502 245.63529 
L 372.06 245.71985 
L 372.339 245.872058 
L 372.897 245.873024 
L 373.176 245.980778 
L 374.571 245.994307 
L 375.408 246.113174 
L 375.966 245.992858 
L 376.524 246.06872 
L 377.082 245.881722 
L 378.756 245.914096 
L 379.593 245.700522 
L 380.151 245.794746 
L 380.709 245.722749 
L 383.778 246.172608 
L 384.336 246.151347 
L 388.242 246.366854 
L 388.8 246.371203 
L 389.079 246.374102 
L 389.079 246.374102 
" style="fill:none;stroke:#ff0000;stroke-linecap:square;stroke-width:1.5;"/>
   </g>
   <g id="patch_3">
    <path d="M 54 252 
L 54 34.56 
" style="fill:none;stroke:#000000;stroke-linecap:square;stroke-linejoin:miter;stroke-width:0.8;"/>
   </g>
   <g id="patch_4">
    <path d="M 388.8 252 
L 388.8 34.56 
" style="fill:none;stroke:#000000;stroke-linecap:square;stroke-linejoin:miter;stroke-width:0.8;"/>
   </g>
   <g id="patch_5">
    <path d="M 54 252 
L 388.8 252 
" style="fill:none;stroke:#000000;stroke-linecap:square;stroke-linejoin:miter;stroke-width:0.8;"/>
   </g>
   <g id="patch_6">
    <path d="M 54 34.56 
L 388.8 34.56 
" style="fill:none;stroke:#000000;stroke-linecap:square;stroke-linejoin:miter;stroke-width:0.8;"/>
   </g>
   <g id="text_20">
    <!-- N-type Bismuth Telluride, EDS -->
    <defs>
     <path d="M 9.8125 72.90625 
L 23.09375 72.90625 
L 55.421875 11.921875 
L 55.421875 72.90625 
L 64.984375 72.90625 
L 64.984375 0 
L 51.703125 0 
L 19.390625 60.984375 
L 19.390625 0 
L 9.8125 0 
z
" id="DejaVuSans-78"/>
     <path d="M 4.890625 31.390625 
L 31.203125 31.390625 
L 31.203125 23.390625 
L 4.890625 23.390625 
z
" id="DejaVuSans-45"/>
     <path d="M 18.109375 8.203125 
L 18.109375 -20.796875 
L 9.078125 -20.796875 
L 9.078125 54.6875 
L 18.109375 54.6875 
L 18.109375 46.390625 
Q 20.953125 51.265625 25.265625 53.625 
Q 29.59375 56 35.59375 56 
Q 45.5625 56 51.78125 48.09375 
Q 58.015625 40.1875 58.015625 27.296875 
Q 58.015625 14.40625 51.78125 6.484375 
Q 45.5625 -1.421875 35.59375 -1.421875 
Q 29.59375 -1.421875 25.265625 0.953125 
Q 20.953125 3.328125 18.109375 8.203125 
z
M 48.6875 27.296875 
Q 48.6875 37.203125 44.609375 42.84375 
Q 40.53125 48.484375 33.40625 48.484375 
Q 26.265625 48.484375 22.1875 42.84375 
Q 18.109375 37.203125 18.109375 27.296875 
Q 18.109375 17.390625 22.1875 11.75 
Q 26.265625 6.109375 33.40625 6.109375 
Q 40.53125 6.109375 44.609375 11.75 
Q 48.6875 17.390625 48.6875 27.296875 
z
" id="DejaVuSans-112"/>
     <path d="M 19.671875 34.8125 
L 19.671875 8.109375 
L 35.5 8.109375 
Q 43.453125 8.109375 47.28125 11.40625 
Q 51.125 14.703125 51.125 21.484375 
Q 51.125 28.328125 47.28125 31.5625 
Q 43.453125 34.8125 35.5 34.8125 
z
M 19.671875 64.796875 
L 19.671875 42.828125 
L 34.28125 42.828125 
Q 41.5 42.828125 45.03125 45.53125 
Q 48.578125 48.25 48.578125 53.8125 
Q 48.578125 59.328125 45.03125 62.0625 
Q 41.5 64.796875 34.28125 64.796875 
z
M 9.8125 72.90625 
L 35.015625 72.90625 
Q 46.296875 72.90625 52.390625 68.21875 
Q 58.5 63.53125 58.5 54.890625 
Q 58.5 48.1875 55.375 44.234375 
Q 52.25 40.28125 46.1875 39.3125 
Q 53.46875 37.75 57.5 32.78125 
Q 61.53125 27.828125 61.53125 20.40625 
Q 61.53125 10.640625 54.890625 5.3125 
Q 48.25 0 35.984375 0 
L 9.8125 0 
z
" id="DejaVuSans-66"/>
     <path d="M 9.421875 54.6875 
L 18.40625 54.6875 
L 18.40625 0 
L 9.421875 0 
z
M 9.421875 75.984375 
L 18.40625 75.984375 
L 18.40625 64.59375 
L 9.421875 64.59375 
z
" id="DejaVuSans-105"/>
     <path d="M 52 44.1875 
Q 55.375 50.25 60.0625 53.125 
Q 64.75 56 71.09375 56 
Q 79.640625 56 84.28125 50.015625 
Q 88.921875 44.046875 88.921875 33.015625 
L 88.921875 0 
L 79.890625 0 
L 79.890625 32.71875 
Q 79.890625 40.578125 77.09375 44.375 
Q 74.3125 48.1875 68.609375 48.1875 
Q 61.625 48.1875 57.5625 43.546875 
Q 53.515625 38.921875 53.515625 30.90625 
L 53.515625 0 
L 44.484375 0 
L 44.484375 32.71875 
Q 44.484375 40.625 41.703125 44.40625 
Q 38.921875 48.1875 33.109375 48.1875 
Q 26.21875 48.1875 22.15625 43.53125 
Q 18.109375 38.875 18.109375 30.90625 
L 18.109375 0 
L 9.078125 0 
L 9.078125 54.6875 
L 18.109375 54.6875 
L 18.109375 46.1875 
Q 21.1875 51.21875 25.484375 53.609375 
Q 29.78125 56 35.6875 56 
Q 41.65625 56 45.828125 52.96875 
Q 50 49.953125 52 44.1875 
z
" id="DejaVuSans-109"/>
     <path d="M 54.890625 33.015625 
L 54.890625 0 
L 45.90625 0 
L 45.90625 32.71875 
Q 45.90625 40.484375 42.875 44.328125 
Q 39.84375 48.1875 33.796875 48.1875 
Q 26.515625 48.1875 22.3125 43.546875 
Q 18.109375 38.921875 18.109375 30.90625 
L 18.109375 0 
L 9.078125 0 
L 9.078125 75.984375 
L 18.109375 75.984375 
L 18.109375 46.1875 
Q 21.34375 51.125 25.703125 53.5625 
Q 30.078125 56 35.796875 56 
Q 45.21875 56 50.046875 50.171875 
Q 54.890625 44.34375 54.890625 33.015625 
z
" id="DejaVuSans-104"/>
     <path d="M -0.296875 72.90625 
L 61.375 72.90625 
L 61.375 64.59375 
L 35.5 64.59375 
L 35.5 0 
L 25.59375 0 
L 25.59375 64.59375 
L -0.296875 64.59375 
z
" id="DejaVuSans-84"/>
     <path d="M 9.421875 75.984375 
L 18.40625 75.984375 
L 18.40625 0 
L 9.421875 0 
z
" id="DejaVuSans-108"/>
     <path d="M 45.40625 46.390625 
L 45.40625 75.984375 
L 54.390625 75.984375 
L 54.390625 0 
L 45.40625 0 
L 45.40625 8.203125 
Q 42.578125 3.328125 38.25 0.953125 
Q 33.9375 -1.421875 27.875 -1.421875 
Q 17.96875 -1.421875 11.734375 6.484375 
Q 5.515625 14.40625 5.515625 27.296875 
Q 5.515625 40.1875 11.734375 48.09375 
Q 17.96875 56 27.875 56 
Q 33.9375 56 38.25 53.625 
Q 42.578125 51.265625 45.40625 46.390625 
z
M 14.796875 27.296875 
Q 14.796875 17.390625 18.875 11.75 
Q 22.953125 6.109375 30.078125 6.109375 
Q 37.203125 6.109375 41.296875 11.75 
Q 45.40625 17.390625 45.40625 27.296875 
Q 45.40625 37.203125 41.296875 42.84375 
Q 37.203125 48.484375 30.078125 48.484375 
Q 22.953125 48.484375 18.875 42.84375 
Q 14.796875 37.203125 14.796875 27.296875 
z
" id="DejaVuSans-100"/>
     <path d="M 11.71875 12.40625 
L 22.015625 12.40625 
L 22.015625 4 
L 14.015625 -11.625 
L 7.71875 -11.625 
L 11.71875 4 
z
" id="DejaVuSans-44"/>
     <path d="M 19.671875 64.796875 
L 19.671875 8.109375 
L 31.59375 8.109375 
Q 46.6875 8.109375 53.6875 14.9375 
Q 60.6875 21.78125 60.6875 36.53125 
Q 60.6875 51.171875 53.6875 57.984375 
Q 46.6875 64.796875 31.59375 64.796875 
z
M 9.8125 72.90625 
L 30.078125 72.90625 
Q 51.265625 72.90625 61.171875 64.09375 
Q 71.09375 55.28125 71.09375 36.53125 
Q 71.09375 17.671875 61.125 8.828125 
Q 51.171875 0 30.078125 0 
L 9.8125 0 
z
" id="DejaVuSans-68"/>
     <path d="M 53.515625 70.515625 
L 53.515625 60.890625 
Q 47.90625 63.578125 42.921875 64.890625 
Q 37.9375 66.21875 33.296875 66.21875 
Q 25.25 66.21875 20.875 63.09375 
Q 16.5 59.96875 16.5 54.203125 
Q 16.5 49.359375 19.40625 46.890625 
Q 22.3125 44.4375 30.421875 42.921875 
L 36.375 41.703125 
Q 47.40625 39.59375 52.65625 34.296875 
Q 57.90625 29 57.90625 20.125 
Q 57.90625 9.515625 50.796875 4.046875 
Q 43.703125 -1.421875 29.984375 -1.421875 
Q 24.8125 -1.421875 18.96875 -0.25 
Q 13.140625 0.921875 6.890625 3.21875 
L 6.890625 13.375 
Q 12.890625 10.015625 18.65625 8.296875 
Q 24.421875 6.59375 29.984375 6.59375 
Q 38.421875 6.59375 43.015625 9.90625 
Q 47.609375 13.234375 47.609375 19.390625 
Q 47.609375 24.75 44.3125 27.78125 
Q 41.015625 30.8125 33.5 32.328125 
L 27.484375 33.5 
Q 16.453125 35.6875 11.515625 40.375 
Q 6.59375 45.0625 6.59375 53.421875 
Q 6.59375 63.09375 13.40625 68.65625 
Q 20.21875 74.21875 32.171875 74.21875 
Q 37.3125 74.21875 42.625 73.28125 
Q 47.953125 72.359375 53.515625 70.515625 
z
" id="DejaVuSans-83"/>
    </defs>
    <g transform="translate(130.6725 28.56)scale(0.12 -0.12)">
     <use xlink:href="#DejaVuSans-78"/>
     <use x="74.804688" xlink:href="#DejaVuSans-45"/>
     <use x="110.888672" xlink:href="#DejaVuSans-116"/>
     <use x="150.097656" xlink:href="#DejaVuSans-121"/>
     <use x="209.277344" xlink:href="#DejaVuSans-112"/>
     <use x="272.753906" xlink:href="#DejaVuSans-101"/>
     <use x="334.277344" xlink:href="#DejaVuSans-32"/>
     <use x="366.064453" xlink:href="#DejaVuSans-66"/>
     <use x="434.667969" xlink:href="#DejaVuSans-105"/>
     <use x="462.451172" xlink:href="#DejaVuSans-115"/>
     <use x="514.550781" xlink:href="#DejaVuSans-109"/>
     <use x="611.962891" xlink:href="#DejaVuSans-117"/>
     <use x="675.341797" xlink:href="#DejaVuSans-116"/>
     <use x="714.550781" xlink:href="#DejaVuSans-104"/>
     <use x="777.929688" xlink:href="#DejaVuSans-32"/>
     <use x="809.716797" xlink:href="#DejaVuSans-84"/>
     <use x="870.535156" xlink:href="#DejaVuSans-101"/>
     <use x="932.058594" xlink:href="#DejaVuSans-108"/>
     <use x="959.841797" xlink:href="#DejaVuSans-108"/>
     <use x="987.625" xlink:href="#DejaVuSans-117"/>
     <use x="1051.003906" xlink:href="#DejaVuSans-114"/>
     <use x="1092.117188" xlink:href="#DejaVuSans-105"/>
     <use x="1119.900391" xlink:href="#DejaVuSans-100"/>
     <use x="1183.376953" xlink:href="#DejaVuSans-101"/>
     <use x="1244.900391" xlink:href="#DejaVuSans-44"/>
     <use x="1276.6875" xlink:href="#DejaVuSans-32"/>
     <use x="1308.474609" xlink:href="#DejaVuSans-69"/>
     <use x="1371.658203" xlink:href="#DejaVuSans-68"/>
     <use x="1448.660156" xlink:href="#DejaVuSans-83"/>
    </g>
   </g>
  </g>
 </g>
 <defs>
  <clipPath id="p5c51303567">
   <rect height="217.44" width="334.8" x="54" y="34.56"/>
  </clipPath>
 </defs>
</svg>
