<?xml version="1.0" encoding="utf-8" standalone="no"?>
<!DOCTYPE svg PUBLIC "-//W3C//DTD SVG 1.1//EN"
  "http://www.w3.org/Graphics/SVG/1.1/DTD/svg11.dtd">
<!-- Created with matplotlib (https://matplotlib.org/) -->
<svg height="288pt" version="1.1" viewBox="0 0 432 288" width="432pt" xmlns="http://www.w3.org/2000/svg" xmlns:xlink="http://www.w3.org/1999/xlink">
 <defs>
  <style type="text/css">
*{stroke-linecap:butt;stroke-linejoin:round;white-space:pre;}
  </style>
 </defs>
 <g id="figure_1">
  <g id="patch_1">
   <path d="M 0 288 
L 432 288 
L 432 0 
L 0 0 
z
" style="fill:#ffffff;"/>
  </g>
  <g id="axes_1">
   <g id="patch_2">
    <path d="M 54 252 
L 388.8 252 
L 388.8 34.56 
L 54 34.56 
z
" style="fill:#ffffff;"/>
   </g>
   <g id="matplotlib.axis_1">
    <g id="xtick_1">
     <g id="line2d_1">
      <defs>
       <path d="M 0 0 
L 0 3.5 
" id="mfb410249e8" style="stroke:#000000;stroke-width:0.8;"/>
      </defs>
      <g>
       <use style="stroke:#000000;stroke-width:0.8;" x="54" xlink:href="#mfb410249e8" y="252"/>
      </g>
     </g>
     <g id="text_1">
      <!-- 0 -->
      <defs>
       <path d="M 31.78125 66.40625 
Q 24.171875 66.40625 20.328125 58.90625 
Q 16.5 51.421875 16.5 36.375 
Q 16.5 21.390625 20.328125 13.890625 
Q 24.171875 6.390625 31.78125 6.390625 
Q 39.453125 6.390625 43.28125 13.890625 
Q 47.125 21.390625 47.125 36.375 
Q 47.125 51.421875 43.28125 58.90625 
Q 39.453125 66.40625 31.78125 66.40625 
z
M 31.78125 74.21875 
Q 44.046875 74.21875 50.515625 64.515625 
Q 56.984375 54.828125 56.984375 36.375 
Q 56.984375 17.96875 50.515625 8.265625 
Q 44.046875 -1.421875 31.78125 -1.421875 
Q 19.53125 -1.421875 13.0625 8.265625 
Q 6.59375 17.96875 6.59375 36.375 
Q 6.59375 54.828125 13.0625 64.515625 
Q 19.53125 74.21875 31.78125 74.21875 
z
" id="DejaVuSans-48"/>
      </defs>
      <g transform="translate(50.81875 266.598437)scale(0.1 -0.1)">
       <use xlink:href="#DejaVuSans-48"/>
      </g>
     </g>
    </g>
    <g id="xtick_2">
     <g id="line2d_2">
      <g>
       <use style="stroke:#000000;stroke-width:0.8;" x="109.8" xlink:href="#mfb410249e8" y="252"/>
      </g>
     </g>
     <g id="text_2">
      <!-- 2 -->
      <defs>
       <path d="M 19.1875 8.296875 
L 53.609375 8.296875 
L 53.609375 0 
L 7.328125 0 
L 7.328125 8.296875 
Q 12.9375 14.109375 22.625 23.890625 
Q 32.328125 33.6875 34.8125 36.53125 
Q 39.546875 41.84375 41.421875 45.53125 
Q 43.3125 49.21875 43.3125 52.78125 
Q 43.3125 58.59375 39.234375 62.25 
Q 35.15625 65.921875 28.609375 65.921875 
Q 23.96875 65.921875 18.8125 64.3125 
Q 13.671875 62.703125 7.8125 59.421875 
L 7.8125 69.390625 
Q 13.765625 71.78125 18.9375 73 
Q 24.125 74.21875 28.421875 74.21875 
Q 39.75 74.21875 46.484375 68.546875 
Q 53.21875 62.890625 53.21875 53.421875 
Q 53.21875 48.921875 51.53125 44.890625 
Q 49.859375 40.875 45.40625 35.40625 
Q 44.1875 33.984375 37.640625 27.21875 
Q 31.109375 20.453125 19.1875 8.296875 
z
" id="DejaVuSans-50"/>
      </defs>
      <g transform="translate(106.61875 266.598437)scale(0.1 -0.1)">
       <use xlink:href="#DejaVuSans-50"/>
      </g>
     </g>
    </g>
    <g id="xtick_3">
     <g id="line2d_3">
      <g>
       <use style="stroke:#000000;stroke-width:0.8;" x="165.6" xlink:href="#mfb410249e8" y="252"/>
      </g>
     </g>
     <g id="text_3">
      <!-- 4 -->
      <defs>
       <path d="M 37.796875 64.3125 
L 12.890625 25.390625 
L 37.796875 25.390625 
z
M 35.203125 72.90625 
L 47.609375 72.90625 
L 47.609375 25.390625 
L 58.015625 25.390625 
L 58.015625 17.1875 
L 47.609375 17.1875 
L 47.609375 0 
L 37.796875 0 
L 37.796875 17.1875 
L 4.890625 17.1875 
L 4.890625 26.703125 
z
" id="DejaVuSans-52"/>
      </defs>
      <g transform="translate(162.41875 266.598437)scale(0.1 -0.1)">
       <use xlink:href="#DejaVuSans-52"/>
      </g>
     </g>
    </g>
    <g id="xtick_4">
     <g id="line2d_4">
      <g>
       <use style="stroke:#000000;stroke-width:0.8;" x="221.4" xlink:href="#mfb410249e8" y="252"/>
      </g>
     </g>
     <g id="text_4">
      <!-- 6 -->
      <defs>
       <path d="M 33.015625 40.375 
Q 26.375 40.375 22.484375 35.828125 
Q 18.609375 31.296875 18.609375 23.390625 
Q 18.609375 15.53125 22.484375 10.953125 
Q 26.375 6.390625 33.015625 6.390625 
Q 39.65625 6.390625 43.53125 10.953125 
Q 47.40625 15.53125 47.40625 23.390625 
Q 47.40625 31.296875 43.53125 35.828125 
Q 39.65625 40.375 33.015625 40.375 
z
M 52.59375 71.296875 
L 52.59375 62.3125 
Q 48.875 64.0625 45.09375 64.984375 
Q 41.3125 65.921875 37.59375 65.921875 
Q 27.828125 65.921875 22.671875 59.328125 
Q 17.53125 52.734375 16.796875 39.40625 
Q 19.671875 43.65625 24.015625 45.921875 
Q 28.375 48.1875 33.59375 48.1875 
Q 44.578125 48.1875 50.953125 41.515625 
Q 57.328125 34.859375 57.328125 23.390625 
Q 57.328125 12.15625 50.6875 5.359375 
Q 44.046875 -1.421875 33.015625 -1.421875 
Q 20.359375 -1.421875 13.671875 8.265625 
Q 6.984375 17.96875 6.984375 36.375 
Q 6.984375 53.65625 15.1875 63.9375 
Q 23.390625 74.21875 37.203125 74.21875 
Q 40.921875 74.21875 44.703125 73.484375 
Q 48.484375 72.75 52.59375 71.296875 
z
" id="DejaVuSans-54"/>
      </defs>
      <g transform="translate(218.21875 266.598437)scale(0.1 -0.1)">
       <use xlink:href="#DejaVuSans-54"/>
      </g>
     </g>
    </g>
    <g id="xtick_5">
     <g id="line2d_5">
      <g>
       <use style="stroke:#000000;stroke-width:0.8;" x="277.2" xlink:href="#mfb410249e8" y="252"/>
      </g>
     </g>
     <g id="text_5">
      <!-- 8 -->
      <defs>
       <path d="M 31.78125 34.625 
Q 24.75 34.625 20.71875 30.859375 
Q 16.703125 27.09375 16.703125 20.515625 
Q 16.703125 13.921875 20.71875 10.15625 
Q 24.75 6.390625 31.78125 6.390625 
Q 38.8125 6.390625 42.859375 10.171875 
Q 46.921875 13.96875 46.921875 20.515625 
Q 46.921875 27.09375 42.890625 30.859375 
Q 38.875 34.625 31.78125 34.625 
z
M 21.921875 38.8125 
Q 15.578125 40.375 12.03125 44.71875 
Q 8.5 49.078125 8.5 55.328125 
Q 8.5 64.0625 14.71875 69.140625 
Q 20.953125 74.21875 31.78125 74.21875 
Q 42.671875 74.21875 48.875 69.140625 
Q 55.078125 64.0625 55.078125 55.328125 
Q 55.078125 49.078125 51.53125 44.71875 
Q 48 40.375 41.703125 38.8125 
Q 48.828125 37.15625 52.796875 32.3125 
Q 56.78125 27.484375 56.78125 20.515625 
Q 56.78125 9.90625 50.3125 4.234375 
Q 43.84375 -1.421875 31.78125 -1.421875 
Q 19.734375 -1.421875 13.25 4.234375 
Q 6.78125 9.90625 6.78125 20.515625 
Q 6.78125 27.484375 10.78125 32.3125 
Q 14.796875 37.15625 21.921875 38.8125 
z
M 18.3125 54.390625 
Q 18.3125 48.734375 21.84375 45.5625 
Q 25.390625 42.390625 31.78125 42.390625 
Q 38.140625 42.390625 41.71875 45.5625 
Q 45.3125 48.734375 45.3125 54.390625 
Q 45.3125 60.0625 41.71875 63.234375 
Q 38.140625 66.40625 31.78125 66.40625 
Q 25.390625 66.40625 21.84375 63.234375 
Q 18.3125 60.0625 18.3125 54.390625 
z
" id="DejaVuSans-56"/>
      </defs>
      <g transform="translate(274.01875 266.598437)scale(0.1 -0.1)">
       <use xlink:href="#DejaVuSans-56"/>
      </g>
     </g>
    </g>
    <g id="xtick_6">
     <g id="line2d_6">
      <g>
       <use style="stroke:#000000;stroke-width:0.8;" x="333" xlink:href="#mfb410249e8" y="252"/>
      </g>
     </g>
     <g id="text_6">
      <!-- 10 -->
      <defs>
       <path d="M 12.40625 8.296875 
L 28.515625 8.296875 
L 28.515625 63.921875 
L 10.984375 60.40625 
L 10.984375 69.390625 
L 28.421875 72.90625 
L 38.28125 72.90625 
L 38.28125 8.296875 
L 54.390625 8.296875 
L 54.390625 0 
L 12.40625 0 
z
" id="DejaVuSans-49"/>
      </defs>
      <g transform="translate(326.6375 266.598437)scale(0.1 -0.1)">
       <use xlink:href="#DejaVuSans-49"/>
       <use x="63.623047" xlink:href="#DejaVuSans-48"/>
      </g>
     </g>
    </g>
    <g id="xtick_7">
     <g id="line2d_7">
      <g>
       <use style="stroke:#000000;stroke-width:0.8;" x="388.8" xlink:href="#mfb410249e8" y="252"/>
      </g>
     </g>
     <g id="text_7">
      <!-- 12 -->
      <g transform="translate(382.4375 266.598437)scale(0.1 -0.1)">
       <use xlink:href="#DejaVuSans-49"/>
       <use x="63.623047" xlink:href="#DejaVuSans-50"/>
      </g>
     </g>
    </g>
    <g id="text_8">
     <!-- Energy [KeV] -->
     <defs>
      <path d="M 9.8125 72.90625 
L 55.90625 72.90625 
L 55.90625 64.59375 
L 19.671875 64.59375 
L 19.671875 43.015625 
L 54.390625 43.015625 
L 54.390625 34.71875 
L 19.671875 34.71875 
L 19.671875 8.296875 
L 56.78125 8.296875 
L 56.78125 0 
L 9.8125 0 
z
" id="DejaVuSans-69"/>
      <path d="M 54.890625 33.015625 
L 54.890625 0 
L 45.90625 0 
L 45.90625 32.71875 
Q 45.90625 40.484375 42.875 44.328125 
Q 39.84375 48.1875 33.796875 48.1875 
Q 26.515625 48.1875 22.3125 43.546875 
Q 18.109375 38.921875 18.109375 30.90625 
L 18.109375 0 
L 9.078125 0 
L 9.078125 54.6875 
L 18.109375 54.6875 
L 18.109375 46.1875 
Q 21.34375 51.125 25.703125 53.5625 
Q 30.078125 56 35.796875 56 
Q 45.21875 56 50.046875 50.171875 
Q 54.890625 44.34375 54.890625 33.015625 
z
" id="DejaVuSans-110"/>
      <path d="M 56.203125 29.59375 
L 56.203125 25.203125 
L 14.890625 25.203125 
Q 15.484375 15.921875 20.484375 11.0625 
Q 25.484375 6.203125 34.421875 6.203125 
Q 39.59375 6.203125 44.453125 7.46875 
Q 49.3125 8.734375 54.109375 11.28125 
L 54.109375 2.78125 
Q 49.265625 0.734375 44.1875 -0.34375 
Q 39.109375 -1.421875 33.890625 -1.421875 
Q 20.796875 -1.421875 13.15625 6.1875 
Q 5.515625 13.8125 5.515625 26.8125 
Q 5.515625 40.234375 12.765625 48.109375 
Q 20.015625 56 32.328125 56 
Q 43.359375 56 49.78125 48.890625 
Q 56.203125 41.796875 56.203125 29.59375 
z
M 47.21875 32.234375 
Q 47.125 39.59375 43.09375 43.984375 
Q 39.0625 48.390625 32.421875 48.390625 
Q 24.90625 48.390625 20.390625 44.140625 
Q 15.875 39.890625 15.1875 32.171875 
z
" id="DejaVuSans-101"/>
      <path d="M 41.109375 46.296875 
Q 39.59375 47.171875 37.8125 47.578125 
Q 36.03125 48 33.890625 48 
Q 26.265625 48 22.1875 43.046875 
Q 18.109375 38.09375 18.109375 28.8125 
L 18.109375 0 
L 9.078125 0 
L 9.078125 54.6875 
L 18.109375 54.6875 
L 18.109375 46.1875 
Q 20.953125 51.171875 25.484375 53.578125 
Q 30.03125 56 36.53125 56 
Q 37.453125 56 38.578125 55.875 
Q 39.703125 55.765625 41.0625 55.515625 
z
" id="DejaVuSans-114"/>
      <path d="M 45.40625 27.984375 
Q 45.40625 37.75 41.375 43.109375 
Q 37.359375 48.484375 30.078125 48.484375 
Q 22.859375 48.484375 18.828125 43.109375 
Q 14.796875 37.75 14.796875 27.984375 
Q 14.796875 18.265625 18.828125 12.890625 
Q 22.859375 7.515625 30.078125 7.515625 
Q 37.359375 7.515625 41.375 12.890625 
Q 45.40625 18.265625 45.40625 27.984375 
z
M 54.390625 6.78125 
Q 54.390625 -7.171875 48.1875 -13.984375 
Q 42 -20.796875 29.203125 -20.796875 
Q 24.46875 -20.796875 20.265625 -20.09375 
Q 16.0625 -19.390625 12.109375 -17.921875 
L 12.109375 -9.1875 
Q 16.0625 -11.328125 19.921875 -12.34375 
Q 23.78125 -13.375 27.78125 -13.375 
Q 36.625 -13.375 41.015625 -8.765625 
Q 45.40625 -4.15625 45.40625 5.171875 
L 45.40625 9.625 
Q 42.625 4.78125 38.28125 2.390625 
Q 33.9375 0 27.875 0 
Q 17.828125 0 11.671875 7.65625 
Q 5.515625 15.328125 5.515625 27.984375 
Q 5.515625 40.671875 11.671875 48.328125 
Q 17.828125 56 27.875 56 
Q 33.9375 56 38.28125 53.609375 
Q 42.625 51.21875 45.40625 46.390625 
L 45.40625 54.6875 
L 54.390625 54.6875 
z
" id="DejaVuSans-103"/>
      <path d="M 32.171875 -5.078125 
Q 28.375 -14.84375 24.75 -17.8125 
Q 21.140625 -20.796875 15.09375 -20.796875 
L 7.90625 -20.796875 
L 7.90625 -13.28125 
L 13.1875 -13.28125 
Q 16.890625 -13.28125 18.9375 -11.515625 
Q 21 -9.765625 23.484375 -3.21875 
L 25.09375 0.875 
L 2.984375 54.6875 
L 12.5 54.6875 
L 29.59375 11.921875 
L 46.6875 54.6875 
L 56.203125 54.6875 
z
" id="DejaVuSans-121"/>
      <path id="DejaVuSans-32"/>
      <path d="M 8.59375 75.984375 
L 29.296875 75.984375 
L 29.296875 69 
L 17.578125 69 
L 17.578125 -6.203125 
L 29.296875 -6.203125 
L 29.296875 -13.1875 
L 8.59375 -13.1875 
z
" id="DejaVuSans-91"/>
      <path d="M 9.8125 72.90625 
L 19.671875 72.90625 
L 19.671875 42.09375 
L 52.390625 72.90625 
L 65.09375 72.90625 
L 28.90625 38.921875 
L 67.671875 0 
L 54.6875 0 
L 19.671875 35.109375 
L 19.671875 0 
L 9.8125 0 
z
" id="DejaVuSans-75"/>
      <path d="M 28.609375 0 
L 0.78125 72.90625 
L 11.078125 72.90625 
L 34.1875 11.53125 
L 57.328125 72.90625 
L 67.578125 72.90625 
L 39.796875 0 
z
" id="DejaVuSans-86"/>
      <path d="M 30.421875 75.984375 
L 30.421875 -13.1875 
L 9.71875 -13.1875 
L 9.71875 -6.203125 
L 21.390625 -6.203125 
L 21.390625 69 
L 9.71875 69 
L 9.71875 75.984375 
z
" id="DejaVuSans-93"/>
     </defs>
     <g transform="translate(188.544531 280.276563)scale(0.1 -0.1)">
      <use xlink:href="#DejaVuSans-69"/>
      <use x="63.183594" xlink:href="#DejaVuSans-110"/>
      <use x="126.5625" xlink:href="#DejaVuSans-101"/>
      <use x="188.085938" xlink:href="#DejaVuSans-114"/>
      <use x="229.183594" xlink:href="#DejaVuSans-103"/>
      <use x="292.660156" xlink:href="#DejaVuSans-121"/>
      <use x="351.839844" xlink:href="#DejaVuSans-32"/>
      <use x="383.626953" xlink:href="#DejaVuSans-91"/>
      <use x="422.640625" xlink:href="#DejaVuSans-75"/>
      <use x="488.138672" xlink:href="#DejaVuSans-101"/>
      <use x="549.662109" xlink:href="#DejaVuSans-86"/>
      <use x="618.070312" xlink:href="#DejaVuSans-93"/>
     </g>
    </g>
   </g>
   <g id="matplotlib.axis_2">
    <g id="ytick_1">
     <g id="line2d_8">
      <defs>
       <path d="M 0 0 
L -3.5 0 
" id="m08f0ee1e98" style="stroke:#000000;stroke-width:0.8;"/>
      </defs>
      <g>
       <use style="stroke:#000000;stroke-width:0.8;" x="54" xlink:href="#m08f0ee1e98" y="242.116364"/>
      </g>
     </g>
     <g id="text_9">
      <!-- 0 -->
      <g transform="translate(40.6375 245.915582)scale(0.1 -0.1)">
       <use xlink:href="#DejaVuSans-48"/>
      </g>
     </g>
    </g>
    <g id="ytick_2">
     <g id="line2d_9">
      <g>
       <use style="stroke:#000000;stroke-width:0.8;" x="54" xlink:href="#m08f0ee1e98" y="194.291121"/>
      </g>
     </g>
     <g id="text_10">
      <!-- 100000 -->
      <g transform="translate(8.825 198.09034)scale(0.1 -0.1)">
       <use xlink:href="#DejaVuSans-49"/>
       <use x="63.623047" xlink:href="#DejaVuSans-48"/>
       <use x="127.246094" xlink:href="#DejaVuSans-48"/>
       <use x="190.869141" xlink:href="#DejaVuSans-48"/>
       <use x="254.492188" xlink:href="#DejaVuSans-48"/>
       <use x="318.115234" xlink:href="#DejaVuSans-48"/>
      </g>
     </g>
    </g>
    <g id="ytick_3">
     <g id="line2d_10">
      <g>
       <use style="stroke:#000000;stroke-width:0.8;" x="54" xlink:href="#m08f0ee1e98" y="146.465879"/>
      </g>
     </g>
     <g id="text_11">
      <!-- 200000 -->
      <g transform="translate(8.825 150.265097)scale(0.1 -0.1)">
       <use xlink:href="#DejaVuSans-50"/>
       <use x="63.623047" xlink:href="#DejaVuSans-48"/>
       <use x="127.246094" xlink:href="#DejaVuSans-48"/>
       <use x="190.869141" xlink:href="#DejaVuSans-48"/>
       <use x="254.492188" xlink:href="#DejaVuSans-48"/>
       <use x="318.115234" xlink:href="#DejaVuSans-48"/>
      </g>
     </g>
    </g>
    <g id="ytick_4">
     <g id="line2d_11">
      <g>
       <use style="stroke:#000000;stroke-width:0.8;" x="54" xlink:href="#m08f0ee1e98" y="98.640636"/>
      </g>
     </g>
     <g id="text_12">
      <!-- 300000 -->
      <defs>
       <path d="M 40.578125 39.3125 
Q 47.65625 37.796875 51.625 33 
Q 55.609375 28.21875 55.609375 21.1875 
Q 55.609375 10.40625 48.1875 4.484375 
Q 40.765625 -1.421875 27.09375 -1.421875 
Q 22.515625 -1.421875 17.65625 -0.515625 
Q 12.796875 0.390625 7.625 2.203125 
L 7.625 11.71875 
Q 11.71875 9.328125 16.59375 8.109375 
Q 21.484375 6.890625 26.8125 6.890625 
Q 36.078125 6.890625 40.9375 10.546875 
Q 45.796875 14.203125 45.796875 21.1875 
Q 45.796875 27.640625 41.28125 31.265625 
Q 36.765625 34.90625 28.71875 34.90625 
L 20.21875 34.90625 
L 20.21875 43.015625 
L 29.109375 43.015625 
Q 36.375 43.015625 40.234375 45.921875 
Q 44.09375 48.828125 44.09375 54.296875 
Q 44.09375 59.90625 40.109375 62.90625 
Q 36.140625 65.921875 28.71875 65.921875 
Q 24.65625 65.921875 20.015625 65.03125 
Q 15.375 64.15625 9.8125 62.3125 
L 9.8125 71.09375 
Q 15.4375 72.65625 20.34375 73.4375 
Q 25.25 74.21875 29.59375 74.21875 
Q 40.828125 74.21875 47.359375 69.109375 
Q 53.90625 64.015625 53.90625 55.328125 
Q 53.90625 49.265625 50.4375 45.09375 
Q 46.96875 40.921875 40.578125 39.3125 
z
" id="DejaVuSans-51"/>
      </defs>
      <g transform="translate(8.825 102.439855)scale(0.1 -0.1)">
       <use xlink:href="#DejaVuSans-51"/>
       <use x="63.623047" xlink:href="#DejaVuSans-48"/>
       <use x="127.246094" xlink:href="#DejaVuSans-48"/>
       <use x="190.869141" xlink:href="#DejaVuSans-48"/>
       <use x="254.492188" xlink:href="#DejaVuSans-48"/>
       <use x="318.115234" xlink:href="#DejaVuSans-48"/>
      </g>
     </g>
    </g>
    <g id="ytick_5">
     <g id="line2d_12">
      <g>
       <use style="stroke:#000000;stroke-width:0.8;" x="54" xlink:href="#m08f0ee1e98" y="50.815393"/>
      </g>
     </g>
     <g id="text_13">
      <!-- 400000 -->
      <g transform="translate(8.825 54.614612)scale(0.1 -0.1)">
       <use xlink:href="#DejaVuSans-52"/>
       <use x="63.623047" xlink:href="#DejaVuSans-48"/>
       <use x="127.246094" xlink:href="#DejaVuSans-48"/>
       <use x="190.869141" xlink:href="#DejaVuSans-48"/>
       <use x="254.492188" xlink:href="#DejaVuSans-48"/>
       <use x="318.115234" xlink:href="#DejaVuSans-48"/>
      </g>
     </g>
    </g>
    <g id="text_14">
     <!-- Counts -->
     <defs>
      <path d="M 64.40625 67.28125 
L 64.40625 56.890625 
Q 59.421875 61.53125 53.78125 63.8125 
Q 48.140625 66.109375 41.796875 66.109375 
Q 29.296875 66.109375 22.65625 58.46875 
Q 16.015625 50.828125 16.015625 36.375 
Q 16.015625 21.96875 22.65625 14.328125 
Q 29.296875 6.6875 41.796875 6.6875 
Q 48.140625 6.6875 53.78125 8.984375 
Q 59.421875 11.28125 64.40625 15.921875 
L 64.40625 5.609375 
Q 59.234375 2.09375 53.4375 0.328125 
Q 47.65625 -1.421875 41.21875 -1.421875 
Q 24.65625 -1.421875 15.125 8.703125 
Q 5.609375 18.84375 5.609375 36.375 
Q 5.609375 53.953125 15.125 64.078125 
Q 24.65625 74.21875 41.21875 74.21875 
Q 47.75 74.21875 53.53125 72.484375 
Q 59.328125 70.75 64.40625 67.28125 
z
" id="DejaVuSans-67"/>
      <path d="M 30.609375 48.390625 
Q 23.390625 48.390625 19.1875 42.75 
Q 14.984375 37.109375 14.984375 27.296875 
Q 14.984375 17.484375 19.15625 11.84375 
Q 23.34375 6.203125 30.609375 6.203125 
Q 37.796875 6.203125 41.984375 11.859375 
Q 46.1875 17.53125 46.1875 27.296875 
Q 46.1875 37.015625 41.984375 42.703125 
Q 37.796875 48.390625 30.609375 48.390625 
z
M 30.609375 56 
Q 42.328125 56 49.015625 48.375 
Q 55.71875 40.765625 55.71875 27.296875 
Q 55.71875 13.875 49.015625 6.21875 
Q 42.328125 -1.421875 30.609375 -1.421875 
Q 18.84375 -1.421875 12.171875 6.21875 
Q 5.515625 13.875 5.515625 27.296875 
Q 5.515625 40.765625 12.171875 48.375 
Q 18.84375 56 30.609375 56 
z
" id="DejaVuSans-111"/>
      <path d="M 8.5 21.578125 
L 8.5 54.6875 
L 17.484375 54.6875 
L 17.484375 21.921875 
Q 17.484375 14.15625 20.5 10.265625 
Q 23.53125 6.390625 29.59375 6.390625 
Q 36.859375 6.390625 41.078125 11.03125 
Q 45.3125 15.671875 45.3125 23.6875 
L 45.3125 54.6875 
L 54.296875 54.6875 
L 54.296875 0 
L 45.3125 0 
L 45.3125 8.40625 
Q 42.046875 3.421875 37.71875 1 
Q 33.40625 -1.421875 27.6875 -1.421875 
Q 18.265625 -1.421875 13.375 4.4375 
Q 8.5 10.296875 8.5 21.578125 
z
M 31.109375 56 
z
" id="DejaVuSans-117"/>
      <path d="M 18.3125 70.21875 
L 18.3125 54.6875 
L 36.8125 54.6875 
L 36.8125 47.703125 
L 18.3125 47.703125 
L 18.3125 18.015625 
Q 18.3125 11.328125 20.140625 9.421875 
Q 21.96875 7.515625 27.59375 7.515625 
L 36.8125 7.515625 
L 36.8125 0 
L 27.59375 0 
Q 17.1875 0 13.234375 3.875 
Q 9.28125 7.765625 9.28125 18.015625 
L 9.28125 47.703125 
L 2.6875 47.703125 
L 2.6875 54.6875 
L 9.28125 54.6875 
L 9.28125 70.21875 
z
" id="DejaVuSans-116"/>
      <path d="M 44.28125 53.078125 
L 44.28125 44.578125 
Q 40.484375 46.53125 36.375 47.5 
Q 32.28125 48.484375 27.875 48.484375 
Q 21.1875 48.484375 17.84375 46.4375 
Q 14.5 44.390625 14.5 40.28125 
Q 14.5 37.15625 16.890625 35.375 
Q 19.28125 33.59375 26.515625 31.984375 
L 29.59375 31.296875 
Q 39.15625 29.25 43.1875 25.515625 
Q 47.21875 21.78125 47.21875 15.09375 
Q 47.21875 7.46875 41.1875 3.015625 
Q 35.15625 -1.421875 24.609375 -1.421875 
Q 20.21875 -1.421875 15.453125 -0.5625 
Q 10.6875 0.296875 5.421875 2 
L 5.421875 11.28125 
Q 10.40625 8.6875 15.234375 7.390625 
Q 20.0625 6.109375 24.8125 6.109375 
Q 31.15625 6.109375 34.5625 8.28125 
Q 37.984375 10.453125 37.984375 14.40625 
Q 37.984375 18.0625 35.515625 20.015625 
Q 33.0625 21.96875 24.703125 23.78125 
L 21.578125 24.515625 
Q 13.234375 26.265625 9.515625 29.90625 
Q 5.8125 33.546875 5.8125 39.890625 
Q 5.8125 47.609375 11.28125 51.796875 
Q 16.75 56 26.8125 56 
Q 31.78125 56 36.171875 55.265625 
Q 40.578125 54.546875 44.28125 53.078125 
z
" id="DejaVuSans-115"/>
     </defs>
     <g transform="translate(2.745312 160.733125)rotate(-90)scale(0.1 -0.1)">
      <use xlink:href="#DejaVuSans-67"/>
      <use x="69.824219" xlink:href="#DejaVuSans-111"/>
      <use x="131.005859" xlink:href="#DejaVuSans-117"/>
      <use x="194.384766" xlink:href="#DejaVuSans-110"/>
      <use x="257.763672" xlink:href="#DejaVuSans-116"/>
      <use x="296.972656" xlink:href="#DejaVuSans-115"/>
     </g>
    </g>
   </g>
   <g id="line2d_13">
    <path clip-path="url(#p4eeef1eacf)" d="M 54 242.116364 
L 56.511 242.038887 
L 56.79 241.817934 
L 57.069 241.338247 
L 58.464 237.361578 
L 59.58 236.712111 
L 60.138 236.462463 
L 61.254 235.276876 
L 61.533 235.107096 
L 61.812 235.280223 
L 62.37 236.380204 
L 62.928 237.305144 
L 63.207 237.425186 
L 63.765 237.416099 
L 64.044 237.560053 
L 64.602 237.562922 
L 64.881 237.395534 
L 65.16 237.048323 
L 65.718 235.356744 
L 66.276 232.972177 
L 66.555 232.308841 
L 66.834 232.485795 
L 67.113 233.061132 
L 67.95 235.735998 
L 68.787 236.527028 
L 71.298 238.196607 
L 71.856 237.847961 
L 72.972 235.890474 
L 73.251 236.067427 
L 74.367 237.541401 
L 74.646 237.45962 
L 75.204 236.746545 
L 75.483 236.417029 
L 76.041 236.231946 
L 76.32 236.418942 
L 77.157 237.293188 
L 77.715 237.636095 
L 78.831 238.164564 
L 79.11 238.086609 
L 79.668 238.261171 
L 79.947 238.162173 
L 80.784 238.120086 
L 82.737 237.856569 
L 83.295 237.860395 
L 84.132 237.74418 
L 84.411 237.836004 
L 84.969 237.529923 
L 85.248 237.663834 
L 88.317 236.861326 
L 89.433 236.869456 
L 90.27 236.529897 
L 90.549 236.282162 
L 91.107 235.116183 
L 92.223 230.837737 
L 92.502 230.267182 
L 92.781 229.951535 
L 93.06 230.218878 
L 93.339 230.799955 
L 94.176 233.293085 
L 94.734 234.619757 
L 95.292 235.342875 
L 96.129 235.768041 
L 96.408 235.614522 
L 96.966 235.818257 
L 97.803 235.890474 
L 98.64 235.761345 
L 99.198 235.742694 
L 99.477 235.671912 
L 99.756 235.719737 
L 101.151 235.049706 
L 101.709 234.470064 
L 101.988 234.278285 
L 102.267 233.873683 
L 102.825 233.866031 
L 103.662 234.034376 
L 104.22 234.099896 
L 105.057 233.408343 
L 106.452 230.430266 
L 106.731 230.208835 
L 107.01 230.287746 
L 107.289 230.520655 
L 108.405 233.288302 
L 108.963 233.887552 
L 109.242 233.970768 
L 110.358 233.715382 
L 111.195 233.924856 
L 112.59 234.559497 
L 114.264 234.045376 
L 114.822 233.723034 
L 116.217 232.308363 
L 116.496 232.355232 
L 116.775 232.152931 
L 117.612 232.133323 
L 117.891 231.890849 
L 118.449 230.563698 
L 118.728 228.971596 
L 119.007 226.26947 
L 119.286 221.781549 
L 119.565 214.821063 
L 120.123 191.83386 
L 121.518 117.758777 
L 121.797 115.717595 
L 122.076 119.436486 
L 123.192 155.473285 
L 123.471 158.349017 
L 123.75 158.532665 
L 124.308 155.35133 
L 124.587 156.93052 
L 124.866 161.57196 
L 125.424 180.302716 
L 126.261 212.305455 
L 126.819 225.576003 
L 127.098 229.538803 
L 127.656 233.327041 
L 127.935 233.971725 
L 128.493 234.116635 
L 129.051 233.319867 
L 129.609 232.111323 
L 130.167 231.281555 
L 130.725 231.656505 
L 131.283 232.693356 
L 132.678 235.763737 
L 133.236 236.399812 
L 134.073 236.733633 
L 134.352 236.565766 
L 134.631 236.670503 
L 134.91 236.585374 
L 135.189 236.693459 
L 135.468 236.538506 
L 135.747 236.557157 
L 136.026 236.464376 
L 136.305 236.519854 
L 137.7 236.186034 
L 138.258 236.131035 
L 138.537 236.026297 
L 138.816 236.154947 
L 139.374 236.109513 
L 139.653 235.908169 
L 139.932 236.044471 
L 140.49 235.94069 
L 141.885 235.067879 
L 143.28 234.653235 
L 143.559 234.812493 
L 143.838 234.729277 
L 144.396 234.983229 
L 145.512 234.725451 
L 146.628 233.806728 
L 146.907 233.837814 
L 147.186 233.601079 
L 147.465 233.689078 
L 148.023 234.29598 
L 149.418 235.900517 
L 149.697 236.104731 
L 149.976 236.093253 
L 150.255 236.278815 
L 150.534 236.191294 
L 151.092 236.265423 
L 152.487 236.077949 
L 152.766 235.819692 
L 153.045 235.752259 
L 153.324 235.534654 
L 153.882 235.286441 
L 155.277 234.19746 
L 155.556 233.707729 
L 156.114 231.266729 
L 156.393 228.974465 
L 156.951 220.587831 
L 157.509 206.16852 
L 158.904 163.533273 
L 159.183 161.383528 
L 159.462 162.626028 
L 159.741 167.158904 
L 160.299 183.82648 
L 161.136 212.073981 
L 161.694 224.576456 
L 162.252 231.00369 
L 162.531 232.725399 
L 162.81 233.534124 
L 163.089 233.705816 
L 163.368 233.246216 
L 163.647 232.260538 
L 163.926 230.827693 
L 164.484 225.551134 
L 165.321 212.567538 
L 166.158 199.966064 
L 166.437 197.914361 
L 166.716 196.88851 
L 167.274 199.188904 
L 169.506 224.075726 
L 170.343 229.018464 
L 170.622 230.489569 
L 170.901 231.357119 
L 171.459 232.094584 
L 171.738 231.96163 
L 172.017 231.431248 
L 172.575 229.518716 
L 173.691 224.817017 
L 173.97 224.239288 
L 174.249 224.209636 
L 174.528 224.718019 
L 175.086 226.909371 
L 176.481 233.818684 
L 177.039 235.246746 
L 177.597 235.999993 
L 177.876 236.204685 
L 178.434 236.200859 
L 178.713 236.127687 
L 179.55 235.352918 
L 180.387 233.669469 
L 181.224 232.362405 
L 181.503 232.122323 
L 182.061 232.308363 
L 182.619 233.25339 
L 184.014 236.047819 
L 184.293 236.230511 
L 184.572 236.595418 
L 185.409 236.742241 
L 185.967 236.52081 
L 186.804 235.950255 
L 188.199 234.618322 
L 188.478 234.742189 
L 188.757 234.664713 
L 189.315 235.002359 
L 189.594 235.315136 
L 190.152 235.611174 
L 190.431 235.947864 
L 192.105 236.69872 
L 193.221 236.945498 
L 193.5 236.91489 
L 193.779 237.080844 
L 194.895 237.020106 
L 195.174 237.104278 
L 195.732 237.060757 
L 196.29 237.104756 
L 197.127 237.101887 
L 197.964 237.104278 
L 198.801 237.13393 
L 199.359 236.935455 
L 199.917 237.0928 
L 205.776 236.902934 
L 206.055 237.001454 
L 206.892 236.824022 
L 208.008 236.922542 
L 209.403 236.948846 
L 213.588 236.832153 
L 213.867 236.929238 
L 215.262 236.829761 
L 215.82 236.931151 
L 216.099 236.793414 
L 216.657 236.876152 
L 218.331 236.801066 
L 218.61 236.972281 
L 220.005 236.829283 
L 220.284 236.925412 
L 220.842 236.860848 
L 221.4 236.821153 
L 221.679 236.863239 
L 221.958 236.783371 
L 223.074 236.848891 
L 223.632 236.86563 
L 223.911 236.76998 
L 224.19 236.926368 
L 224.469 236.913455 
L 224.748 236.780501 
L 225.585 236.877587 
L 225.864 236.757067 
L 226.143 236.930673 
L 226.422 236.907716 
L 226.98 236.742241 
L 227.259 236.831196 
L 228.096 236.777632 
L 228.375 236.904847 
L 228.933 236.747024 
L 229.491 236.749893 
L 231.444 236.217598 
L 232.002 236.044949 
L 232.56 235.937342 
L 233.955 236.384987 
L 234.792 236.487333 
L 235.908 236.81924 
L 236.466 236.769023 
L 237.024 236.777632 
L 237.861 236.872326 
L 238.698 236.980889 
L 239.814 236.874717 
L 241.488 236.911064 
L 242.046 236.8465 
L 242.604 237.007193 
L 243.162 236.820196 
L 243.72 236.95315 
L 243.999 236.870891 
L 244.557 236.910108 
L 245.394 236.876152 
L 247.068 236.791023 
L 247.347 236.8685 
L 248.463 236.790545 
L 250.416 236.878065 
L 250.974 236.803457 
L 251.253 236.894325 
L 251.811 236.790066 
L 252.09 237.017715 
L 252.369 236.890021 
L 253.764 237.008149 
L 254.322 236.92876 
L 254.88 237.045931 
L 255.438 237.022975 
L 255.717 237.077974 
L 256.275 237.004802 
L 257.949 237.044018 
L 260.181 236.95602 
L 260.46 236.805849 
L 260.739 236.889065 
L 261.018 236.714981 
L 261.576 236.755154 
L 261.855 236.659503 
L 262.413 236.667634 
L 263.808 236.803457 
L 266.04 237.048801 
L 266.319 237.011497 
L 266.598 237.162625 
L 269.946 237.171712 
L 270.225 237.187016 
L 270.504 237.076061 
L 270.783 237.212842 
L 271.899 237.161669 
L 272.457 237.222407 
L 273.294 237.22145 
L 274.41 237.345796 
L 274.689 237.208059 
L 274.968 237.251102 
L 275.247 237.162147 
L 275.805 237.275493 
L 276.084 237.187972 
L 276.921 237.315666 
L 277.479 237.237711 
L 278.595 237.320927 
L 279.153 237.264493 
L 279.711 237.304666 
L 280.827 237.398403 
L 281.106 237.254449 
L 281.943 237.28171 
L 282.501 237.307057 
L 283.059 237.187494 
L 283.338 237.341491 
L 285.291 237.299883 
L 285.849 237.345317 
L 286.128 237.260667 
L 286.686 237.454359 
L 287.244 237.344839 
L 287.523 237.431881 
L 287.802 237.360622 
L 288.081 237.476359 
L 288.639 237.393621 
L 292.266 237.460576 
L 293.103 237.451968 
L 298.125 237.52514 
L 298.404 237.468228 
L 298.962 237.612182 
L 299.241 237.540444 
L 300.078 237.605965 
L 300.915 237.552401 
L 301.473 237.636573 
L 301.752 237.550488 
L 302.868 237.637051 
L 303.426 237.580139 
L 305.937 237.71692 
L 306.216 237.572009 
L 307.053 237.673399 
L 308.169 237.724093 
L 308.448 237.580139 
L 309.006 237.693963 
L 309.285 237.561009 
L 310.122 237.665747 
L 310.68 237.707833 
L 310.959 237.586357 
L 311.238 237.686311 
L 311.517 237.579661 
L 312.633 237.550966 
L 313.47 237.271667 
L 313.749 237.341491 
L 314.307 237.029193 
L 316.26 236.252511 
L 316.539 236.320422 
L 316.818 236.160208 
L 319.887 237.407969 
L 320.166 237.38023 
L 320.724 237.652834 
L 321.003 237.641834 
L 321.282 237.750875 
L 322.119 237.735571 
L 323.514 237.894351 
L 323.793 237.761875 
L 324.351 237.879525 
L 324.63 237.81544 
L 325.746 237.940263 
L 326.583 237.921133 
L 327.699 237.914438 
L 328.257 238.027784 
L 329.373 237.978045 
L 330.489 238.000045 
L 333.837 238.033523 
L 334.116 238.150216 
L 334.674 238.078957 
L 335.511 238.076087 
L 336.069 238.112434 
L 337.743 238.221476 
L 338.022 238.051696 
L 338.58 238.129173 
L 339.138 238.095695 
L 340.254 238.183216 
L 340.533 238.068913 
L 341.091 238.103348 
L 348.066 238.071783 
L 349.461 237.553357 
L 349.74 237.298927 
L 350.019 237.237232 
L 350.856 236.142034 
L 351.693 234.108983 
L 352.53 231.197383 
L 353.925 222.618491 
L 355.041 215.332315 
L 355.599 212.834881 
L 355.878 212.341802 
L 356.157 212.103154 
L 356.436 212.327455 
L 356.715 213.048181 
L 356.994 214.110858 
L 357.552 217.495451 
L 359.784 232.647922 
L 360.342 234.915795 
L 360.9 236.382595 
L 361.737 237.429012 
L 362.016 237.580139 
L 362.295 237.535662 
L 362.574 237.63753 
L 362.853 237.586357 
L 363.411 237.212842 
L 363.969 236.931629 
L 365.643 235.529871 
L 366.201 235.302701 
L 366.759 235.207529 
L 367.038 235.408395 
L 367.317 235.450481 
L 367.596 235.770432 
L 367.875 235.86943 
L 368.991 236.980411 
L 369.27 237.092322 
L 369.828 237.659529 
L 370.665 238.206172 
L 371.223 238.311866 
L 371.502 238.484515 
L 374.013 238.692555 
L 376.803 238.711685 
L 377.082 238.597382 
L 377.361 238.693989 
L 378.198 238.577296 
L 379.593 238.637555 
L 379.872 238.478297 
L 380.43 238.58973 
L 380.709 238.460602 
L 381.546 238.572513 
L 381.825 238.512732 
L 382.383 238.632773 
L 384.057 238.835552 
L 384.894 238.759988 
L 386.289 238.919724 
L 387.126 238.844639 
L 387.684 238.910638 
L 388.242 238.850378 
L 388.8 238.915898 
L 389.079 238.86616 
L 389.079 238.86616 
" style="fill:none;stroke:#1f77b4;stroke-linecap:square;stroke-width:1.5;"/>
   </g>
   <g id="line2d_14">
    <path clip-path="url(#p4eeef1eacf)" d="M 54 242.116364 
L 56.232 242.09006 
L 56.511 241.979105 
L 56.79 241.650068 
L 57.069 240.819821 
L 58.185 235.373961 
L 58.743 234.118548 
L 59.022 234.057332 
L 59.301 233.729251 
L 59.58 233.588645 
L 60.138 233.077393 
L 60.975 230.780825 
L 61.254 230.047664 
L 61.533 229.642584 
L 61.812 230.331267 
L 62.649 233.884683 
L 62.928 234.486324 
L 63.486 234.854101 
L 64.044 235.104705 
L 64.323 235.220442 
L 64.602 235.186008 
L 65.16 234.365327 
L 65.718 231.995586 
L 66.276 228.674601 
L 66.555 227.899354 
L 66.834 228.079655 
L 67.113 228.997421 
L 67.95 232.658922 
L 68.508 233.53508 
L 69.066 234.033419 
L 69.345 234.358631 
L 69.903 234.642713 
L 70.182 234.862709 
L 70.74 235.631261 
L 71.298 235.886648 
L 71.577 235.776649 
L 72.135 234.510715 
L 72.693 232.768442 
L 72.972 232.394927 
L 73.251 232.359058 
L 73.809 233.591992 
L 74.367 234.762754 
L 74.646 234.783319 
L 75.204 233.929639 
L 75.483 233.161087 
L 75.762 232.95496 
L 76.041 232.978395 
L 76.32 233.174478 
L 76.878 234.18933 
L 77.715 235.030576 
L 77.994 235.086531 
L 78.831 235.72452 
L 79.11 235.890952 
L 80.505 235.760867 
L 81.063 235.462916 
L 81.621 235.291702 
L 82.179 235.316571 
L 82.458 235.45622 
L 83.016 235.368222 
L 83.853 235.507872 
L 84.132 235.449047 
L 84.411 235.265876 
L 84.69 235.230485 
L 84.969 235.071227 
L 85.248 235.118574 
L 85.527 234.995185 
L 85.806 235.068358 
L 88.317 233.929639 
L 88.596 234.113766 
L 88.875 234.143896 
L 89.154 233.925813 
L 89.712 233.873683 
L 89.991 233.802423 
L 90.549 233.142435 
L 90.828 232.495838 
L 91.107 231.502029 
L 92.502 224.191941 
L 92.781 223.972901 
L 93.06 224.29907 
L 93.618 226.368468 
L 94.455 229.947231 
L 95.013 231.156253 
L 95.292 231.639766 
L 96.129 232.121366 
L 96.408 232.124714 
L 96.966 232.415013 
L 97.245 232.358579 
L 97.524 232.454708 
L 97.803 232.272016 
L 98.64 232.327971 
L 98.919 232.138583 
L 99.198 232.140975 
L 99.756 231.791372 
L 100.035 231.862632 
L 100.314 231.679461 
L 100.593 231.699069 
L 101.43 230.820998 
L 102.267 229.938622 
L 102.825 229.708583 
L 103.104 229.886971 
L 103.383 229.795625 
L 103.941 229.952013 
L 104.22 229.771234 
L 105.057 228.43404 
L 105.615 226.714244 
L 106.452 223.980075 
L 106.731 223.462128 
L 107.01 223.705558 
L 107.568 225.050882 
L 108.405 228.29439 
L 108.684 228.931901 
L 109.242 229.313068 
L 109.521 229.394371 
L 110.079 228.97303 
L 111.474 229.462283 
L 111.753 229.772669 
L 112.032 229.843928 
L 112.311 230.128488 
L 113.985 229.81332 
L 114.264 229.337937 
L 114.543 229.222678 
L 114.822 228.936683 
L 115.938 227.185323 
L 116.775 226.511465 
L 117.054 226.537769 
L 117.612 226.345033 
L 117.891 225.968649 
L 118.17 225.360312 
L 118.449 224.154637 
L 118.728 221.335339 
L 119.007 217.149196 
L 119.286 210.178188 
L 119.565 199.270207 
L 120.123 163.322364 
L 121.239 61.705679 
L 121.518 47.626885 
L 121.797 44.443636 
L 122.076 51.064085 
L 122.634 81.292507 
L 123.192 106.389282 
L 123.471 111.047939 
L 123.75 110.446297 
L 124.308 105.990419 
L 124.587 107.834082 
L 124.866 115.689857 
L 125.424 144.846038 
L 126.261 195.405449 
L 126.819 216.080302 
L 127.377 225.92178 
L 127.656 228.162871 
L 127.935 229.182027 
L 128.214 229.565107 
L 128.493 229.47137 
L 128.772 228.998378 
L 129.888 225.775435 
L 130.167 225.408615 
L 130.446 225.343573 
L 131.004 226.459814 
L 132.399 231.612506 
L 132.957 232.705312 
L 134.073 233.489646 
L 134.631 233.562819 
L 134.91 233.432256 
L 135.189 233.490603 
L 135.468 233.305519 
L 135.747 233.417909 
L 137.142 233.012829 
L 137.421 232.968351 
L 137.979 232.715356 
L 138.258 232.764137 
L 138.816 232.554185 
L 139.374 232.729703 
L 139.653 232.688095 
L 139.932 232.455665 
L 140.211 232.590532 
L 141.048 231.954456 
L 141.327 231.543637 
L 141.885 231.117514 
L 142.164 230.857823 
L 142.443 230.880301 
L 142.722 230.62874 
L 143.28 230.578524 
L 143.559 230.770303 
L 143.838 230.760738 
L 144.117 230.913779 
L 144.675 230.905649 
L 144.954 230.786564 
L 145.233 230.841084 
L 146.628 229.289634 
L 146.907 229.14568 
L 147.465 229.213591 
L 148.023 230.057707 
L 148.581 231.079254 
L 149.418 232.321276 
L 149.976 232.589097 
L 150.813 232.871266 
L 152.208 232.520229 
L 153.045 232.107497 
L 153.324 231.764112 
L 153.603 231.65507 
L 154.161 231.031907 
L 154.44 230.701435 
L 154.719 230.577089 
L 155.556 228.795599 
L 155.835 227.538751 
L 156.114 225.245053 
L 156.393 221.75381 
L 156.951 209.128424 
L 157.509 186.846644 
L 158.625 132.081002 
L 158.904 123.727845 
L 159.183 120.072562 
L 159.462 122.36913 
L 159.741 129.351615 
L 160.299 154.511519 
L 161.136 196.908118 
L 161.694 215.347141 
L 162.252 225.005927 
L 162.531 227.393363 
L 162.81 228.496213 
L 163.089 228.691818 
L 163.368 228.125089 
L 163.647 226.852459 
L 164.205 220.877173 
L 164.763 210.549791 
L 166.158 178.123798 
L 166.437 174.422602 
L 166.716 173.705224 
L 166.995 174.890333 
L 167.274 177.751717 
L 168.111 192.983101 
L 168.948 207.349804 
L 169.785 217.417495 
L 170.622 223.94038 
L 170.901 225.358877 
L 171.18 226.058082 
L 171.459 226.37325 
L 171.738 226.111168 
L 172.017 225.577438 
L 172.575 222.474537 
L 173.412 216.548032 
L 173.691 215.35001 
L 173.97 214.687152 
L 174.249 214.400679 
L 174.807 216.676204 
L 176.481 229.065811 
L 177.039 231.371945 
L 177.597 232.319841 
L 178.155 232.772746 
L 178.713 232.572836 
L 179.55 231.108906 
L 180.108 229.552672 
L 180.945 227.103063 
L 181.782 226.381381 
L 182.061 226.716157 
L 184.293 232.710573 
L 184.851 233.40643 
L 185.13 233.351431 
L 185.409 233.432734 
L 186.525 232.598184 
L 186.804 232.090758 
L 187.083 231.820067 
L 187.362 231.134731 
L 187.92 230.687565 
L 188.478 230.336528 
L 188.757 230.274355 
L 189.315 230.703826 
L 190.71 232.52262 
L 191.547 233.262476 
L 191.826 233.205086 
L 192.384 233.530776 
L 192.663 233.536993 
L 192.942 233.777076 
L 193.5 233.671382 
L 194.337 234.026246 
L 194.616 233.891857 
L 194.895 233.965986 
L 195.453 233.870335 
L 195.732 233.806728 
L 196.011 233.955942 
L 196.29 233.872248 
L 196.569 234.038202 
L 197.127 233.806728 
L 197.406 233.967899 
L 200.475 233.706295 
L 200.754 233.927726 
L 201.312 233.857901 
L 209.124 233.559949 
L 209.403 233.761772 
L 209.961 233.573819 
L 210.519 233.53795 
L 210.798 233.6666 
L 211.077 233.538428 
L 212.193 233.512603 
L 212.472 233.435604 
L 213.03 233.624514 
L 213.309 233.488212 
L 213.588 233.69673 
L 214.425 233.512124 
L 214.704 233.589601 
L 215.82 233.429865 
L 216.378 233.495385 
L 216.657 233.578601 
L 216.936 233.465256 
L 217.215 233.536515 
L 217.494 233.475299 
L 217.773 233.539863 
L 218.331 233.388257 
L 218.61 233.569036 
L 224.469 233.495385 
L 225.027 233.48056 
L 225.306 233.459995 
L 225.585 233.28065 
L 225.864 233.446125 
L 226.422 233.383474 
L 226.98 233.391126 
L 227.259 233.334693 
L 227.817 233.436082 
L 228.096 233.321302 
L 228.654 233.309345 
L 228.933 233.152 
L 229.491 233.206043 
L 230.607 232.624488 
L 231.165 232.233756 
L 231.444 231.924804 
L 232.002 231.763155 
L 232.56 231.722982 
L 232.839 231.695243 
L 233.676 232.058715 
L 234.513 232.839223 
L 234.792 232.713921 
L 235.35 233.11087 
L 235.629 233.101305 
L 236.466 233.481994 
L 236.745 233.382996 
L 237.024 233.550384 
L 237.582 233.422691 
L 238.977 233.506863 
L 239.256 233.481994 
L 239.535 233.591036 
L 239.814 233.382996 
L 240.093 233.552776 
L 240.372 233.345214 
L 240.93 233.541298 
L 241.209 233.464777 
L 242.046 233.596775 
L 242.325 233.482473 
L 242.604 233.580514 
L 242.883 233.48056 
L 243.162 233.626427 
L 243.441 233.46669 
L 243.72 233.590079 
L 243.999 233.467647 
L 244.557 233.493951 
L 245.394 233.386822 
L 245.952 233.315563 
L 246.231 233.409778 
L 246.51 233.28352 
L 246.789 233.326562 
L 247.068 233.525037 
L 247.347 233.35191 
L 249.021 233.35717 
L 249.858 233.280172 
L 250.137 233.443256 
L 250.974 233.407387 
L 251.532 233.560428 
L 252.09 233.390648 
L 252.369 233.527907 
L 252.648 233.372953 
L 252.927 233.554689 
L 253.485 233.498255 
L 253.764 233.740251 
L 254.043 233.517385 
L 254.601 233.657035 
L 255.438 233.661339 
L 255.717 233.776598 
L 257.112 233.645557 
L 257.391 233.678078 
L 257.67 233.593905 
L 258.507 233.77325 
L 258.786 233.602514 
L 259.344 233.567602 
L 259.623 233.452821 
L 259.902 233.509255 
L 260.181 233.290693 
L 260.46 233.335171 
L 261.018 232.951612 
L 261.576 232.9167 
L 261.855 232.631183 
L 262.134 232.780876 
L 262.413 232.6484 
L 262.692 232.646487 
L 262.971 232.961177 
L 263.25 232.89757 
L 265.203 233.494429 
L 265.482 233.531254 
L 265.761 233.684773 
L 266.598 233.706295 
L 266.877 233.802902 
L 267.156 233.727338 
L 267.435 233.920074 
L 267.993 233.798597 
L 268.551 233.906204 
L 269.109 233.897117 
L 270.504 233.831597 
L 271.341 233.747903 
L 271.62 233.881335 
L 272.457 233.891857 
L 273.573 233.957377 
L 274.131 233.940638 
L 274.41 234.064028 
L 274.968 233.867944 
L 275.247 234.068332 
L 275.526 233.902378 
L 276.642 233.961203 
L 276.921 234.094157 
L 278.037 234.043463 
L 278.595 234.108983 
L 278.874 233.976986 
L 280.548 234.130026 
L 281.385 234.008072 
L 281.943 234.061158 
L 282.222 233.976986 
L 282.78 234.05781 
L 283.059 234.008072 
L 283.338 234.105636 
L 284.454 233.954508 
L 284.733 234.056854 
L 285.012 234.012376 
L 285.291 234.113288 
L 286.407 233.97029 
L 286.686 234.131461 
L 288.639 234.195547 
L 289.197 234.234764 
L 289.476 234.308415 
L 289.755 234.206547 
L 290.871 234.32611 
L 291.429 234.274459 
L 291.708 234.361501 
L 291.987 234.271111 
L 292.266 234.455238 
L 292.545 234.17833 
L 293.94 234.367718 
L 294.219 234.225677 
L 294.777 234.362935 
L 295.335 234.415065 
L 297.567 234.347631 
L 298.404 234.475803 
L 298.683 234.417456 
L 298.962 234.526976 
L 299.799 234.424152 
L 300.078 234.511194 
L 300.357 234.383978 
L 302.31 234.484411 
L 302.868 234.394978 
L 303.147 234.566193 
L 303.426 234.347631 
L 303.705 234.522672 
L 304.542 234.485368 
L 304.821 234.58054 
L 305.1 234.451412 
L 306.495 234.560932 
L 307.053 234.587714 
L 307.89 234.48202 
L 308.169 234.773754 
L 308.727 234.499237 
L 309.285 234.577192 
L 309.564 234.612105 
L 309.843 234.494933 
L 310.122 234.707277 
L 310.401 234.555671 
L 312.075 234.543715 
L 312.354 234.331849 
L 312.633 234.419847 
L 313.47 234.044897 
L 313.749 233.842597 
L 314.028 233.796206 
L 314.865 233.170174 
L 315.144 232.929135 
L 315.423 232.853571 
L 315.981 232.419317 
L 316.26 232.542707 
L 316.539 232.240451 
L 316.818 232.352362 
L 317.097 232.1558 
L 318.213 232.937265 
L 318.771 233.371518 
L 319.05 233.6336 
L 319.608 233.839249 
L 319.887 234.184069 
L 320.166 234.283067 
L 320.445 234.524585 
L 321.003 234.615931 
L 321.282 234.760363 
L 322.119 234.732624 
L 322.398 234.913882 
L 322.677 234.80771 
L 324.351 234.933969 
L 324.63 234.844536 
L 325.188 234.918186 
L 325.746 234.980359 
L 326.862 234.99375 
L 327.699 235.01575 
L 327.978 235.127183 
L 328.536 235.070749 
L 329.373 235.050662 
L 330.768 235.114748 
L 331.047 235.018619 
L 331.326 235.241963 
L 332.163 235.089879 
L 332.442 235.175486 
L 333.279 235.176921 
L 333.837 235.150617 
L 334.116 235.147269 
L 334.395 235.289789 
L 334.674 235.149661 
L 335.232 235.249137 
L 335.511 235.139139 
L 335.79 235.149182 
L 336.069 235.373483 
L 336.627 235.171182 
L 338.58 235.324223 
L 339.138 235.309397 
L 340.812 235.25105 
L 341.091 235.175008 
L 341.928 235.342875 
L 343.602 235.369657 
L 344.16 235.316571 
L 344.439 235.472003 
L 345.555 235.405047 
L 346.392 235.446177 
L 347.508 235.316092 
L 347.787 235.277832 
L 348.066 235.120487 
L 348.345 235.195573 
L 349.182 234.68193 
L 349.461 234.220416 
L 349.74 234.052549 
L 350.577 232.533142 
L 350.856 231.902805 
L 351.693 228.54356 
L 352.251 225.363659 
L 353.088 218.413217 
L 354.204 206.289996 
L 355.041 197.219461 
L 355.599 193.172967 
L 355.878 192.313547 
L 356.157 192.123203 
L 356.715 193.692827 
L 357.273 198.142966 
L 357.831 204.548679 
L 358.947 218.456738 
L 359.784 226.520074 
L 360.621 231.260512 
L 361.179 233.062089 
L 361.737 234.128592 
L 362.295 234.380631 
L 362.853 234.260111 
L 363.411 233.917682 
L 363.69 233.635513 
L 364.248 232.800963 
L 364.527 232.51975 
L 364.806 231.958282 
L 365.364 231.4609 
L 366.201 230.659349 
L 366.48 230.576611 
L 366.759 230.769347 
L 367.038 230.765521 
L 367.875 231.697156 
L 368.991 233.591992 
L 370.665 235.440916 
L 371.502 235.816823 
L 372.06 235.900517 
L 372.339 236.051166 
L 372.897 236.052123 
L 373.455 236.147295 
L 373.734 236.062166 
L 374.013 236.210903 
L 374.571 236.172164 
L 375.408 236.289814 
L 375.966 236.170729 
L 376.524 236.245815 
L 377.082 236.060731 
L 378.756 236.092774 
L 379.593 235.881387 
L 380.151 235.974646 
L 380.709 235.903386 
L 383.778 236.348639 
L 384.336 236.327596 
L 388.242 236.540897 
L 388.8 236.545201 
L 389.079 236.548071 
L 389.079 236.548071 
" style="fill:none;stroke:#ff7f0e;stroke-linecap:square;stroke-width:1.5;"/>
   </g>
   <g id="patch_3">
    <path d="M 54 252 
L 54 34.56 
" style="fill:none;stroke:#000000;stroke-linecap:square;stroke-linejoin:miter;stroke-width:0.8;"/>
   </g>
   <g id="patch_4">
    <path d="M 388.8 252 
L 388.8 34.56 
" style="fill:none;stroke:#000000;stroke-linecap:square;stroke-linejoin:miter;stroke-width:0.8;"/>
   </g>
   <g id="patch_5">
    <path d="M 54 252 
L 388.8 252 
" style="fill:none;stroke:#000000;stroke-linecap:square;stroke-linejoin:miter;stroke-width:0.8;"/>
   </g>
   <g id="patch_6">
    <path d="M 54 34.56 
L 388.8 34.56 
" style="fill:none;stroke:#000000;stroke-linecap:square;stroke-linejoin:miter;stroke-width:0.8;"/>
   </g>
   <g id="legend_1">
    <g id="patch_7">
     <path d="M 292.651563 71.91625 
L 381.8 71.91625 
Q 383.8 71.91625 383.8 69.91625 
L 383.8 41.56 
Q 383.8 39.56 381.8 39.56 
L 292.651563 39.56 
Q 290.651563 39.56 290.651563 41.56 
L 290.651563 69.91625 
Q 290.651563 71.91625 292.651563 71.91625 
z
" style="fill:#ffffff;opacity:0.8;stroke:#cccccc;stroke-linejoin:miter;"/>
    </g>
    <g id="line2d_15">
     <path d="M 294.651563 47.658437 
L 314.651563 47.658437 
" style="fill:none;stroke:#1f77b4;stroke-linecap:square;stroke-width:1.5;"/>
    </g>
    <g id="line2d_16"/>
    <g id="text_15">
     <!-- Melt Grown -->
     <defs>
      <path d="M 9.8125 72.90625 
L 24.515625 72.90625 
L 43.109375 23.296875 
L 61.8125 72.90625 
L 76.515625 72.90625 
L 76.515625 0 
L 66.890625 0 
L 66.890625 64.015625 
L 48.09375 14.015625 
L 38.1875 14.015625 
L 19.390625 64.015625 
L 19.390625 0 
L 9.8125 0 
z
" id="DejaVuSans-77"/>
      <path d="M 9.421875 75.984375 
L 18.40625 75.984375 
L 18.40625 0 
L 9.421875 0 
z
" id="DejaVuSans-108"/>
      <path d="M 59.515625 10.40625 
L 59.515625 29.984375 
L 43.40625 29.984375 
L 43.40625 38.09375 
L 69.28125 38.09375 
L 69.28125 6.78125 
Q 63.578125 2.734375 56.6875 0.65625 
Q 49.8125 -1.421875 42 -1.421875 
Q 24.90625 -1.421875 15.25 8.5625 
Q 5.609375 18.5625 5.609375 36.375 
Q 5.609375 54.25 15.25 64.234375 
Q 24.90625 74.21875 42 74.21875 
Q 49.125 74.21875 55.546875 72.453125 
Q 61.96875 70.703125 67.390625 67.28125 
L 67.390625 56.78125 
Q 61.921875 61.421875 55.765625 63.765625 
Q 49.609375 66.109375 42.828125 66.109375 
Q 29.4375 66.109375 22.71875 58.640625 
Q 16.015625 51.171875 16.015625 36.375 
Q 16.015625 21.625 22.71875 14.15625 
Q 29.4375 6.6875 42.828125 6.6875 
Q 48.046875 6.6875 52.140625 7.59375 
Q 56.25 8.5 59.515625 10.40625 
z
" id="DejaVuSans-71"/>
      <path d="M 4.203125 54.6875 
L 13.1875 54.6875 
L 24.421875 12.015625 
L 35.59375 54.6875 
L 46.1875 54.6875 
L 57.421875 12.015625 
L 68.609375 54.6875 
L 77.59375 54.6875 
L 63.28125 0 
L 52.6875 0 
L 40.921875 44.828125 
L 29.109375 0 
L 18.5 0 
z
" id="DejaVuSans-119"/>
     </defs>
     <g transform="translate(322.651563 51.158437)scale(0.1 -0.1)">
      <use xlink:href="#DejaVuSans-77"/>
      <use x="86.279297" xlink:href="#DejaVuSans-101"/>
      <use x="147.802734" xlink:href="#DejaVuSans-108"/>
      <use x="175.585938" xlink:href="#DejaVuSans-116"/>
      <use x="214.794922" xlink:href="#DejaVuSans-32"/>
      <use x="246.582031" xlink:href="#DejaVuSans-71"/>
      <use x="324.072266" xlink:href="#DejaVuSans-114"/>
      <use x="365.154297" xlink:href="#DejaVuSans-111"/>
      <use x="426.335938" xlink:href="#DejaVuSans-119"/>
      <use x="508.123047" xlink:href="#DejaVuSans-110"/>
     </g>
    </g>
    <g id="line2d_17">
     <path d="M 294.651563 62.336562 
L 314.651563 62.336562 
" style="fill:none;stroke:#ff7f0e;stroke-linecap:square;stroke-width:1.5;"/>
    </g>
    <g id="line2d_18"/>
    <g id="text_16">
     <!-- SLM -->
     <defs>
      <path d="M 53.515625 70.515625 
L 53.515625 60.890625 
Q 47.90625 63.578125 42.921875 64.890625 
Q 37.9375 66.21875 33.296875 66.21875 
Q 25.25 66.21875 20.875 63.09375 
Q 16.5 59.96875 16.5 54.203125 
Q 16.5 49.359375 19.40625 46.890625 
Q 22.3125 44.4375 30.421875 42.921875 
L 36.375 41.703125 
Q 47.40625 39.59375 52.65625 34.296875 
Q 57.90625 29 57.90625 20.125 
Q 57.90625 9.515625 50.796875 4.046875 
Q 43.703125 -1.421875 29.984375 -1.421875 
Q 24.8125 -1.421875 18.96875 -0.25 
Q 13.140625 0.921875 6.890625 3.21875 
L 6.890625 13.375 
Q 12.890625 10.015625 18.65625 8.296875 
Q 24.421875 6.59375 29.984375 6.59375 
Q 38.421875 6.59375 43.015625 9.90625 
Q 47.609375 13.234375 47.609375 19.390625 
Q 47.609375 24.75 44.3125 27.78125 
Q 41.015625 30.8125 33.5 32.328125 
L 27.484375 33.5 
Q 16.453125 35.6875 11.515625 40.375 
Q 6.59375 45.0625 6.59375 53.421875 
Q 6.59375 63.09375 13.40625 68.65625 
Q 20.21875 74.21875 32.171875 74.21875 
Q 37.3125 74.21875 42.625 73.28125 
Q 47.953125 72.359375 53.515625 70.515625 
z
" id="DejaVuSans-83"/>
      <path d="M 9.8125 72.90625 
L 19.671875 72.90625 
L 19.671875 8.296875 
L 55.171875 8.296875 
L 55.171875 0 
L 9.8125 0 
z
" id="DejaVuSans-76"/>
     </defs>
     <g transform="translate(322.651563 65.836562)scale(0.1 -0.1)">
      <use xlink:href="#DejaVuSans-83"/>
      <use x="63.476562" xlink:href="#DejaVuSans-76"/>
      <use x="119.189453" xlink:href="#DejaVuSans-77"/>
     </g>
    </g>
   </g>
  </g>
 </g>
 <defs>
  <clipPath id="p4eeef1eacf">
   <rect height="217.44" width="334.8" x="54" y="34.56"/>
  </clipPath>
 </defs>
</svg>
